<svg xmlns="http://www.w3.org/2000/svg" version="1.1" xmlns:xlink="http://www.w3.org/1999/xlink" xmlns:svgjs="http://svgjs.dev/svgjs" viewBox="0 0 11.590949373745104 5.98207905237549"><g transform="matrix(1,0,0,1,0.6863029858629544,0.9255811131018081)"><g><path d=" M 0.7231574707031251 0.8208281250000001 Q 0.7507814941406251 0.7932041015625001 0.7961638183593751 0.7581807861328126 Q 0.8415461425781251 0.7231574707031251 0.9061666259765626 0.69257373046875 Q 0.9707871093750001 0.6619899902343751 1.0541524658203125 0.64127197265625 Q 1.137517822265625 0.620553955078125 1.240121337890625 0.620553955078125 Q 1.3141142578125 0.620553955078125 1.3851474609375 0.6388055419921875 Q 1.4561806640625001 0.65705712890625 1.5119219970703126 0.697506591796875 Q 1.567663330078125 0.7379560546875 1.6021933593750002 0.8025765380859375 Q 1.636723388671875 0.867197021484375 1.636723388671875 0.959934814453125 Q 1.636723388671875 1.03590087890625 1.60416650390625 1.1029877929687502 Q 1.5716096191406252 1.17007470703125 1.514388427734375 1.2268026123046876 Q 1.4571672363281252 1.283530517578125 1.380214599609375 1.3284195556640626 Q 1.303261962890625 1.37330859375 1.2149637451171875 1.4043856201171876 Q 1.12666552734375 1.4354626464843752 1.030968017578125 1.4522343750000002 Q 0.9352705078125001 1.4690061035156252 0.8405595703125001 1.4690061035156252 Q 0.7369694824218751 1.4690061035156252 0.6422585449218751 1.4482880859375 Q 0.547547607421875 1.427570068359375 0.46467553710937504 1.3876138916015626 Q 0.38180346679687505 1.34765771484375 0.3142232666015625 1.2889566650390627 Q 0.24664306640625003 1.230255615234375 0.19830102539062502 1.1547828369140625 Q 0.14995898437500002 1.07931005859375 0.12332153320312501 0.9870655517578126 Q 0.09668408203125001 0.8948210449218751 0.09668408203125001 0.7882712402343751 Q 0.0986572265625 0.6807348632812501 0.1267745361328125 0.5879970703125 Q 0.154891845703125 0.4952592773437501 0.2027406005859375 0.41732006835937496 Q 0.25058935546875 0.33938085937500007 0.31619641113281255 0.2757469482421875 Q 0.38180346679687505 0.21211303710937512 0.45826281738281255 0.1632777099609375 Q 0.53472216796875 0.11444238281250008 0.6190740966796876 0.08040563964843761 Q 0.703426025390625 0.04636889648437492 0.7902443847656251 0.026637451171874993 Q 0.8257609863281251 0.01775830078125007 0.8676903076171876 0.012825439453125087 Q 0.90961962890625 0.007892578125000105 0.9545086669921876 0.004932861328124982 Q 0.9993977050781251 0.0019731445312500817 1.046753173828125 0.0009865722656250409 Q 1.094108642578125 0 1.1414641113281252 0 Q 1.2312421875000001 0 1.3126343994140626 0.0019731445312500817 Q 1.3940266113281252 0.003946289062499941 1.4482880859375 0.003946289062499941 Q 1.4374357910156252 0.050315185546875085 1.4329962158203127 0.08632507324218741 Q 1.428556640625 0.12233496093749996 1.428556640625 0.15390527343749993 Q 1.428556640625 0.198301025390625 1.4354626464843752 0.23628405761718763 Q 1.4423686523437502 0.27426708984375003 1.455194091796875 0.31767626953125006 L 1.41079833984375 0.31964941406250014 Q 1.3812011718750001 0.25650878906249996 1.3338457031250002 0.2086600341796876 Q 1.2864902343750002 0.160811279296875 1.22926904296875 0.1287476806640626 Q 1.1720478515625001 0.09668408203125001 1.1074273681640625 0.08089892578125002 Q 1.042806884765625 0.06511376953125003 0.979666259765625 0.06511376953125003 Q 0.8760761718750001 0.06511376953125003 0.7956705322265626 0.09865722656250009 Q 0.7152648925781251 0.13220068359374992 0.6545906982421875 0.18794201660156262 Q 0.5939165039062501 0.2436833496093751 0.5519871826171876 0.315703125 Q 0.510057861328125 0.38772290039062507 0.48391369628906256 0.46516882324218756 Q 0.45776953125000003 0.54261474609375 0.44593066406250004 0.6195673828125 Q 0.43409179687500005 0.6965200195312501 0.43409179687500005 0.7616337890625001 Q 0.43409179687500005 0.8948210449218751 0.47256811523437503 1.0077835693359376 Q 0.5110444335937501 1.1207460937500002 0.5786246337890626 1.2031248779296877 Q 0.646204833984375 1.2855036621093752 0.7384493408203125 1.33187255859375 Q 0.8306938476562501 1.3782414550781252 0.939216796875 1.3782414550781252 Q 1.0161694335937501 1.3782414550781252 1.074377197265625 1.3599898681640625 Q 1.1325849609375 1.34173828125 1.1745142822265626 1.3121411132812502 Q 1.2164436035156252 1.2825439453125 1.2445609130859376 1.2435743408203126 Q 1.27267822265625 1.2046047363281251 1.2889566650390627 1.163168701171875 Q 1.305235107421875 1.121732666015625 1.3121411132812502 1.080296630859375 Q 1.3190471191406252 1.0388605957031252 1.3190471191406252 1.00433056640625 Q 1.3190471191406252 0.9471093750000001 1.3003022460937501 0.8958076171875001 Q 1.2815573730468752 0.8445058593750001 1.246040771484375 0.8060295410156251 Q 1.2105241699218752 0.76755322265625 1.1587291259765626 0.7453553466796876 Q 1.10693408203125 0.7231574707031251 1.040833740234375 0.7231574707031251 Q 0.9826259765625001 0.7231574707031251 0.9332973632812501 0.7384493408203125 Q 0.8839687500000001 0.7537412109375 0.8459857177734376 0.7734726562500001 Q 0.808002685546875 0.7932041015625001 0.7818585205078126 0.8139221191406251 Q 0.7557143554687501 0.83464013671875 0.74387548828125 0.8445058593750001 L 0.7231574707031251 0.8208281250000001 M 3.2760118652343753 1.40685205078125 Q 3.1862337890625003 1.443355224609375 3.1142140136718752 1.4561806640625001 Q 3.04219423828125 1.4690061035156252 2.9869461914062505 1.4690061035156252 Q 2.9178861328125003 1.4690061035156252 2.8493193603515627 1.4325029296875 Q 2.780752587890625 1.395999755859375 2.7171186767578126 1.3392718505859376 Q 2.6534847656250005 1.2825439453125 2.597250146484375 1.21348388671875 Q 2.5410155273437502 1.144423828125 2.4961264892578128 1.078323486328125 Q 2.4512374511718753 1.0122231445312502 2.4201604248046875 0.9579616699218751 Q 2.3890833984375 0.9037001953125001 2.3762579589843753 0.8770627441406251 Q 2.5015526367187504 0.8563447265625 2.6002098632812505 0.802083251953125 Q 2.6426324707031252 0.778405517578125 2.6830819335937504 0.7458486328125 Q 2.7235313964843755 0.7132917480468751 2.755101708984375 0.6688959960937501 Q 2.7866720214843754 0.6245002441406251 2.8059101806640627 0.5672790527343751 Q 2.82514833984375 0.510057861328125 2.82514833984375 0.437051513671875 Q 2.82514833984375 0.37095117187500004 2.808376611328125 0.3171829833984374 Q 2.7916048828125 0.26341479492187503 2.7639808593750006 0.22148547363281246 Q 2.7363568359375003 0.1795561523437501 2.6998536621093754 0.14946569824218758 Q 2.6633504882812504 0.11937524414062506 2.62388759765625 0.09964379882812491 Q 2.5844247070312503 0.07991235351562498 2.544468530273438 0.07053991699218742 Q 2.5045123535156253 0.06116748046875009 2.4699823242187504 0.06116748046875009 Q 2.4176939941406252 0.06116748046875009 2.3836572509765626 0.0720197753906251 Q 2.3496205078125003 0.0828720703125001 2.3298890625000004 0.10112365722656258 Q 2.3101576171875005 0.11937524414062506 2.3027583251953128 0.14354626464843756 Q 2.295359033203125 0.16771728515625006 2.295359033203125 0.19435473632812506 L 2.295359033203125 1.24505419921875 Q 2.295359033203125 1.2647856445312502 2.301771752929688 1.28846337890625 Q 2.3081844726562504 1.3121411132812502 2.326436059570313 1.3328591308593751 Q 2.3446876464843753 1.3535771484375 2.37921767578125 1.3678824462890626 Q 2.4137477050781255 1.3821877441406252 2.4699823242187504 1.3821877441406252 L 2.4699823242187504 1.4186909179687501 L 1.8089789062500001 1.4186909179687501 L 1.8089789062500001 1.3821877441406252 Q 1.8612672363281253 1.3821877441406252 1.8948106933593751 1.3718287353515626 Q 1.9283541503906252 1.3614697265625002 1.9480855957031251 1.3432181396484377 Q 1.9678170410156253 1.324966552734375 1.9752163330078127 1.3012888183593752 Q 1.9826156250000002 1.277611083984375 1.9826156250000002 1.2509736328125 L 1.9826156250000002 0.16969042968749992 Q 1.9826156250000002 0.149958984375 1.9752163330078127 0.12726782226562494 Q 1.9678170410156253 0.10457666015625011 1.9485788818359377 0.08533850097656259 Q 1.9293407226562502 0.06610034179687507 1.8957972656250002 0.053274902343749986 Q 1.8622538085937501 0.0404494628906249 1.8089789062500001 0.0404494628906249 L 1.8089789062500001 0.003946289062499941 L 2.4699823242187504 0.003946289062499941 Q 2.6100755859375004 0.003946289062499941 2.7343836914062503 0.028610595703125075 Q 2.858691796875 0.053274902343749986 2.951922875976563 0.10605651855468756 Q 3.045153955078125 0.15883813476562492 3.099908715820313 0.2412169189453126 Q 3.1546634765625003 0.3235957031250001 3.1546634765625003 0.4390246582031251 Q 3.1546634765625003 0.5366953125 3.114707299804688 0.60970166015625 Q 3.0747511230468754 0.6827080078125001 3.0091440673828127 0.734996337890625 Q 2.9435370117187505 0.7872846679687501 2.8601716552734375 0.8213214111328125 Q 2.7768062988281255 0.8553581542968751 2.6899879394531254 0.875089599609375 Q 2.7235313964843755 0.9362570800781251 2.7639808593750006 0.9974245605468751 Q 2.8044303222656253 1.058592041015625 2.84882607421875 1.11482666015625 Q 2.8932218261718754 1.171061279296875 2.938110864257813 1.2194033203125 Q 2.9829999023437503 1.267745361328125 3.025422509765625 1.3037552490234376 Q 3.0678451171875003 1.3397651367187502 3.104841577148438 1.3599898681640625 Q 3.141838037109375 1.380214599609375 3.1704486328125006 1.380214599609375 Q 3.1842606445312502 1.380214599609375 3.208431665039063 1.3772548828125002 Q 3.2326026855468752 1.374295166015625 3.2612132812500003 1.362456298828125 L 3.2760118652343753 1.40685205078125 M 4.665697558593751 0.31964941406250014 Q 4.637086962890626 0.257495361328125 4.591211352539063 0.2091533203125 Q 4.5453357421875005 0.160811279296875 4.488607836914063 0.12726782226562494 Q 4.431879931640625 0.0937243652343751 4.3687393066406255 0.07645935058593745 Q 4.3055986816406255 0.05919433593750001 4.243444628906251 0.05919433593750001 Q 4.1753711425781255 0.05919433593750001 4.115190234375 0.08336535644531251 Q 4.055009326171875 0.10753637695312501 4.003214282226563 0.14946569824218758 Q 3.9514192382812503 0.19139501953124993 3.9089966308593755 0.2491094970703125 Q 3.866574023437501 0.30682397460937505 3.834510424804688 0.37341760253906253 Q 3.8024468261718756 0.44001123046875 3.7817288085937504 0.513017578125 Q 3.7610107910156256 0.5860239257812501 3.7521316406250005 0.6590302734375001 L 4.592691210937501 0.6590302734375001 Q 4.5719731933593755 0.70046630859375 4.561120898437501 0.7463419189453125 Q 4.550268603515626 0.7922175292968751 4.5453357421875005 0.831680419921875 Q 4.539416308593751 0.8780493164062501 4.538429736328125 0.9214584960937501 L 4.505872851562501 0.9273779296875001 Q 4.493047412109376 0.8642373046875 4.474302539062501 0.8228012695312501 Q 4.4555576660156255 0.781365234375 4.418067919921875 0.7576875000000001 Q 4.380578173828125 0.7340097656250001 4.317930834960938 0.7246373291015625 Q 4.2552834960937505 0.7152648925781251 4.154653125 0.7152648925781251 L 3.7462122070312507 0.7152648925781251 L 3.7462122070312507 0.7576875000000001 Q 3.7462122070312507 0.837599853515625 3.7649570800781254 0.9145524902343751 Q 3.7837019531250005 0.9915051269531251 3.8182319824218753 1.0610584716796876 Q 3.8527620117187507 1.1306118164062502 3.9030771972656257 1.1888195800781252 Q 3.9533923828125004 1.2470273437500001 4.0155464355468755 1.2899432373046875 Q 4.07770048828125 1.3328591308593751 4.151693408203125 1.3565368652343752 Q 4.225686328125001 1.380214599609375 4.3085583984375 1.380214599609375 Q 4.383537890625001 1.380214599609375 4.440759082031251 1.3659093017578126 Q 4.4979802734375 1.35160400390625 4.539909594726563 1.3298994140625 Q 4.581838916015625 1.3081948242187502 4.61044951171875 1.2820506591796876 Q 4.639060107421876 1.255906494140625 4.65780498046875 1.2322287597656252 Q 4.676549853515626 1.208551025390625 4.685922290039063 1.1902994384765626 Q 4.6952947265625005 1.1720478515625001 4.700227587890626 1.16612841796875 L 4.684442431640626 1.305235107421875 Q 4.66175126953125 1.336805419921875 4.61834208984375 1.3659093017578126 Q 4.57493291015625 1.39501318359375 4.515245288085938 1.4181976318359377 Q 4.4555576660156255 1.4413820800781252 4.38156474609375 1.455194091796875 Q 4.307571826171875 1.4690061035156252 4.2217400390625 1.4690061035156252 Q 4.056982470703126 1.4690061035156252 3.910476489257813 1.4206640625000002 Q 3.7639705078125005 1.3723220214843752 3.6529811279296878 1.283530517578125 Q 3.5419917480468754 1.1947390136718752 3.476384692382813 1.0689510498046877 Q 3.4107776367187506 0.9431630859375001 3.4088044921875005 0.7882712402343751 Q 3.4117642089843754 0.628446533203125 3.464545825195313 0.5006854248046876 Q 3.5173274414062505 0.3729243164062501 3.605625659179688 0.27772009277343757 Q 3.6939238769531255 0.182515869140625 3.8113259765625003 0.11986853027343747 Q 3.9287280761718755 0.05722119140624993 4.06191533203125 0.026637451171874993 Q 4.1319619628906255 0.009865722656249964 4.222726611328126 0.004932861328124982 Q 4.313491259765626 0 4.40524248046875 0 Q 4.494033984375001 0 4.5724664794921885 0.0019731445312500817 Q 4.650898974609376 0.003946289062499941 4.704173876953126 0.003946289062499941 Q 4.693321582031251 0.050315185546875085 4.688882006835938 0.08632507324218741 Q 4.684442431640626 0.12233496093749996 4.684442431640626 0.15390527343749993 Q 4.684442431640626 0.198301025390625 4.6913484375 0.23628405761718763 Q 4.698254443359375 0.27426708984375003 4.710093310546876 0.31767626953125006 L 4.665697558593751 0.31964941406250014 M 6.184624218750001 0.31964941406250014 Q 6.156013623046876 0.257495361328125 6.110138012695313 0.2091533203125 Q 6.064262402343751 0.160811279296875 6.0075344970703135 0.12726782226562494 Q 5.9508065917968755 0.0937243652343751 5.887665966796876 0.07645935058593745 Q 5.824525341796876 0.05919433593750001 5.762371289062501 0.05919433593750001 Q 5.694297802734376 0.05919433593750001 5.6341168945312505 0.08336535644531251 Q 5.5739359863281255 0.10753637695312501 5.522140942382813 0.14946569824218758 Q 5.4703458984375 0.19139501953124993 5.427923291015626 0.2491094970703125 Q 5.385500683593751 0.30682397460937505 5.353437084960938 0.37341760253906253 Q 5.321373486328126 0.44001123046875 5.3006554687500005 0.513017578125 Q 5.279937451171875 0.5860239257812501 5.271058300781251 0.6590302734375001 L 6.111617871093751 0.6590302734375001 Q 6.090899853515626 0.70046630859375 6.080047558593751 0.7463419189453125 Q 6.069195263671876 0.7922175292968751 6.064262402343751 0.831680419921875 Q 6.058342968750001 0.8780493164062501 6.0573563964843755 0.9214584960937501 L 6.024799511718751 0.9273779296875001 Q 6.011974072265626 0.8642373046875 5.993229199218751 0.8228012695312501 Q 5.974484326171876 0.781365234375 5.936994580078125 0.7576875000000001 Q 5.899504833984375 0.7340097656250001 5.836857495117188 0.7246373291015625 Q 5.774210156250001 0.7152648925781251 5.67357978515625 0.7152648925781251 L 5.265138867187501 0.7152648925781251 L 5.265138867187501 0.7576875000000001 Q 5.265138867187501 0.837599853515625 5.2838837402343755 0.9145524902343751 Q 5.302628613281251 0.9915051269531251 5.3371586425781254 1.0610584716796876 Q 5.371688671875001 1.1306118164062502 5.422003857421876 1.1888195800781252 Q 5.472319042968751 1.2470273437500001 5.534473095703126 1.2899432373046875 Q 5.5966271484375 1.3328591308593751 5.6706200683593755 1.3565368652343752 Q 5.744612988281251 1.380214599609375 5.8274850585937505 1.380214599609375 Q 5.902464550781251 1.380214599609375 5.959685742187501 1.3659093017578126 Q 6.01690693359375 1.35160400390625 6.058836254882813 1.3298994140625 Q 6.1007655761718755 1.3081948242187502 6.129376171875 1.2820506591796876 Q 6.157986767578126 1.255906494140625 6.176731640625 1.2322287597656252 Q 6.195476513671876 1.208551025390625 6.204848950195313 1.1902994384765626 Q 6.214221386718751 1.1720478515625001 6.219154248046876 1.16612841796875 L 6.203369091796876 1.305235107421875 Q 6.1806779296875005 1.336805419921875 6.1372687500000005 1.3659093017578126 Q 6.0938595703125005 1.39501318359375 6.0341719482421885 1.4181976318359377 Q 5.974484326171876 1.4413820800781252 5.9004914062500005 1.455194091796875 Q 5.826498486328125 1.4690061035156252 5.7406666992187505 1.4690061035156252 Q 5.575909130859376 1.4690061035156252 5.429403149414063 1.4206640625000002 Q 5.28289716796875 1.3723220214843752 5.171907788085938 1.283530517578125 Q 5.0609184082031256 1.1947390136718752 4.995311352539063 1.0689510498046877 Q 4.929704296875 0.9431630859375001 4.927731152343751 0.7882712402343751 Q 4.9306908691406255 0.628446533203125 4.983472485351563 0.5006854248046876 Q 5.0362541015625 0.3729243164062501 5.124552319335939 0.27772009277343757 Q 5.212850537109375 0.182515869140625 5.33025263671875 0.11986853027343747 Q 5.447654736328126 0.05722119140624993 5.5808419921875005 0.026637451171874993 Q 5.650888623046876 0.009865722656249964 5.741653271484376 0.004932861328124982 Q 5.832417919921876 0 5.9241691406250006 0 Q 6.012960644531251 0 6.091393139648439 0.0019731445312500817 Q 6.169825634765626 0.003946289062499941 6.223100537109376 0.003946289062499941 Q 6.212248242187501 0.050315185546875085 6.207808666992188 0.08632507324218741 Q 6.203369091796876 0.12233496093749996 6.203369091796876 0.15390527343749993 Q 6.203369091796876 0.198301025390625 6.21027509765625 0.23628405761718763 Q 6.2171811035156255 0.27426708984375003 6.229019970703126 0.31767626953125006 L 6.184624218750001 0.31964941406250014 M 6.437778662109376 0.003946289062499941 L 6.933037939453126 0.003946289062499941 L 7.679873144531251 0.9115927734375001 L 7.679873144531251 0.16969042968749992 Q 7.679873144531251 0.149958984375 7.672473852539063 0.12726782226562494 Q 7.665074560546876 0.10457666015625011 7.6458364013671885 0.08533850097656259 Q 7.626598242187501 0.06610034179687507 7.593054785156251 0.053274902343749986 Q 7.559511328125001 0.0404494628906249 7.506236425781251 0.0404494628906249 L 7.506236425781251 0.003946289062499941 L 7.943287939453126 0.003946289062499941 L 7.943287939453126 0.0404494628906249 Q 7.8890264648437505 0.0404494628906249 7.8554830078125 0.051795043945312536 Q 7.82193955078125 0.06314062499999995 7.8027013916015635 0.08237878417968747 Q 7.783463232421876 0.10161694335937499 7.776557226562501 0.12628125000000012 Q 7.769651220703126 0.15094555664062503 7.769651220703126 0.17856958007812507 L 7.769651220703126 1.4186909179687501 L 7.679873144531251 1.4186909179687501 L 6.700206884765626 0.23677734375000004 L 6.700206884765626 1.24505419921875 Q 6.700206884765626 1.2647856445312502 6.706619604492189 1.28846337890625 Q 6.713032324218751 1.3121411132812502 6.731283911132813 1.3328591308593751 Q 6.749535498046876 1.3535771484375 6.783572241210939 1.3678824462890626 Q 6.817608984375001 1.3821877441406252 6.873843603515626 1.3821877441406252 L 6.873843603515626 1.4186909179687501 L 6.437778662109376 1.4186909179687501 L 6.437778662109376 1.3821877441406252 Q 6.491053564453126 1.3821877441406252 6.525090307617188 1.3708421630859375 Q 6.5591270507812505 1.3594965820312501 6.578365209960938 1.3407517089843752 Q 6.597603369140626 1.3220068359375001 6.604509375000001 1.2973425292968752 Q 6.611415380859376 1.27267822265625 6.611415380859376 1.24505419921875 L 6.611415380859376 0.12924096679687502 Q 6.587737646484376 0.10260351562500003 6.568006201171876 0.085831787109375 Q 6.548274755859376 0.06906005859374997 6.528050024414063 0.0587010498046876 Q 6.507825292968751 0.048342041015625004 6.4861207031250006 0.04439575195312506 Q 6.464416113281251 0.0404494628906249 6.437778662109376 0.0404494628906249 L 6.437778662109376 0.003946289062499941 M 1.7768166503906249 2.204594384765625 L 1.7324208984374998 2.2065675292968754 Q 1.7038103027343747 2.1444134765625 1.6579346923828122 2.0960714355468753 Q 1.61205908203125 2.04772939453125 1.5553311767578124 2.0141859374999997 Q 1.4986032714843749 1.9806424804687501 1.4354626464843747 1.9633774658203125 Q 1.3723220214843748 1.946112451171875 1.3101679687499996 1.946112451171875 Q 1.2351884765624996 1.946112451171875 1.1690881347656248 1.975709619140625 Q 1.1029877929687497 2.005306787109375 1.0477397460937499 2.056608544921875 Q 0.9924916992187498 2.107910302734375 0.9485892333984373 2.1764770751953124 Q 0.9046867675781247 2.24504384765625 0.8745963134765622 2.3224897705078127 Q 0.8445058593749997 2.399935693359375 0.8287207031249997 2.4828077636718753 Q 0.8129355468749997 2.565679833984375 0.8129355468749997 2.644605615234375 Q 0.8129355468749997 2.72451796875 0.8316804199218748 2.80147060546875 Q 0.8504252929687497 2.8784232421875 0.8849553222656248 2.947976586914063 Q 0.9194853515624998 3.017529931640625 0.9698005371093747 3.0757376953125 Q 1.0201157226562496 3.133945458984375 1.0822697753906247 3.1768613525390625 Q 1.1444238281249999 3.2197772460937504 1.2184167480468748 3.24345498046875 Q 1.2924096679687498 3.26713271484375 1.3752817382812497 3.26713271484375 Q 1.4502612304687499 3.26713271484375 1.5074824218749998 3.252827416992188 Q 1.5647036132812497 3.238522119140625 1.6066329345703123 3.216817529296875 Q 1.6485622558593749 3.195112939453125 1.6771728515624997 3.1689687744140627 Q 1.7057834472656248 3.1428246093750003 1.7245283203125 3.119146875 Q 1.7432731933593748 3.095469140625 1.7526456298828124 3.0772175537109376 Q 1.76201806640625 3.058965966796875 1.766950927734375 3.0530465332031254 L 1.751165771484375 3.19215322265625 Q 1.7255148925781247 3.226683251953125 1.6806258544921873 3.2557871337890627 Q 1.6357368164062498 3.284891015625 1.5755559082031247 3.3070888916015626 Q 1.5153749999999997 3.3292867675781253 1.4418753662109374 3.3416189208984375 Q 1.3683757324218748 3.35395107421875 1.2864902343749998 3.35395107421875 Q 1.17796728515625 3.35395107421875 1.0758570556640623 3.332246484375 Q 0.9737468261718748 3.31054189453125 0.8839687499999997 3.270092431640625 Q 0.7941906738281248 3.2296429687500003 0.7197044677734372 3.1699553466796875 Q 0.6452182617187497 3.110267724609375 0.5914500732421872 3.035288232421875 Q 0.5376818847656247 2.960308740234375 0.5070981445312497 2.8695440917968753 Q 0.4765144042968747 2.778779443359375 0.4755278320312497 2.67518935546875 Q 0.4784875488281247 2.5153646484375 0.5312691650390622 2.3876035400390627 Q 0.5840507812499998 2.2598424316406254 0.6723489990234373 2.164638208007813 Q 0.7606472167968747 2.0694339843750003 0.8780493164062497 2.0067866455078125 Q 0.9954514160156248 1.944139306640625 1.1286386718749997 1.91355556640625 Q 1.1986853027343747 1.896783837890625 1.2894499511718749 1.8918509765625 Q 1.3802145996093749 1.886918115234375 1.4719658203125 1.886918115234375 Q 1.5607573242187498 1.886918115234375 1.6391898193359373 1.888891259765625 Q 1.7176223144531249 1.890864404296875 1.7708972167968748 1.890864404296875 Q 1.7600449218749998 1.9372333007812501 1.7556053466796873 1.9732431884765624 Q 1.751165771484375 2.009253076171875 1.751165771484375 2.0408233886718747 Q 1.751165771484375 2.085219140625 1.7580717773437498 2.1232021728515624 Q 1.7649777832031248 2.161185205078125 1.7768166503906249 2.204594384765625 M 3.4486620117187496 3.293770166015625 Q 3.3588839355468747 3.33027333984375 3.2868641601562496 3.3430987792968754 Q 3.214844384765625 3.3559242187500002 3.1595963378906244 3.3559242187500002 Q 3.0905362792968747 3.3559242187500002 3.021969506835937 3.3194210449218753 Q 2.9534027343749996 3.2829178710937503 2.8897688232421874 3.226189965820313 Q 2.8261349121093744 3.1694620605468753 2.7699002929687495 3.100402001953125 Q 2.7136656738281246 3.031341943359375 2.668776635742187 2.9652416015625 Q 2.6238875976562497 2.899141259765625 2.5928105712890623 2.84487978515625 Q 2.5617335449218746 2.790618310546875 2.5489081054687497 2.763980859375 Q 2.6742027832031248 2.743262841796875 2.7728600097656244 2.6890013671875 Q 2.8152826171874996 2.6653236328125 2.8557320800781247 2.6327667480468753 Q 2.8961815429687494 2.60020986328125 2.92775185546875 2.555814111328125 Q 2.9593221679687494 2.511418359375 2.978560327148437 2.45419716796875 Q 2.997798486328125 2.3969759765625 2.997798486328125 2.32396962890625 Q 2.997798486328125 2.257869287109375 2.9810267578125 2.2041010986328127 Q 2.964255029296875 2.15033291015625 2.9366310058593745 2.1084035888671875 Q 2.9090069824218747 2.0664742675781254 2.8725038085937498 2.0363838134765624 Q 2.836000634765625 2.0062933593750003 2.7965377441406245 1.9865619140625 Q 2.7570748535156246 1.96683046875 2.717118676757812 1.9574580322265624 Q 2.6771624999999997 1.9480855957031251 2.642632470703125 1.9480855957031251 Q 2.5903441406249996 1.9480855957031251 2.5563073974609374 1.9589378906250001 Q 2.5222706542968747 1.9697901855468751 2.5025392089843748 1.9880417724609376 Q 2.4828077636718744 2.0062933593750003 2.475408471679687 2.0304643798828126 Q 2.4680091796875 2.054635400390625 2.4680091796875 2.0812728515625 L 2.4680091796875 3.131972314453125 Q 2.4680091796875 3.151703759765625 2.474421899414062 3.175381494140625 Q 2.4808346191406248 3.199059228515625 2.4990862060546872 3.2197772460937504 Q 2.5173377929687497 3.240495263671875 2.5518678222656246 3.2548005615234374 Q 2.5863978515624995 3.269105859375 2.642632470703125 3.269105859375 L 2.642632470703125 3.305609033203125 L 1.9816290527343745 3.305609033203125 L 1.9816290527343745 3.269105859375 Q 2.0339173828124997 3.269105859375 2.0674608398437497 3.2587468505859376 Q 2.101004296875 3.248387841796875 2.1207357421874997 3.2301362548828125 Q 2.1404671874999996 3.21188466796875 2.147866479492187 3.18820693359375 Q 2.1552657714843746 3.1645291992187503 2.1552657714843746 3.1378917480468753 L 2.1552657714843746 2.056608544921875 Q 2.1552657714843746 2.036877099609375 2.147866479492187 2.0141859374999997 Q 2.1404671874999996 1.9914947753906251 2.121229028320312 1.9722566162109376 Q 2.1019908691406246 1.95301845703125 2.0684474121093746 1.940193017578125 Q 2.0349039550781245 1.927367578125 1.9816290527343745 1.927367578125 L 1.9816290527343745 1.890864404296875 L 2.642632470703125 1.890864404296875 Q 2.7827257324218744 1.890864404296875 2.9070338378906246 1.9155287109375 Q 3.031341943359375 1.940193017578125 3.124573022460937 1.9929746337890626 Q 3.2178041015625 2.04575625 3.2725588623046873 2.128135034179688 Q 3.3273136230468747 2.210513818359375 3.3273136230468747 2.3259427734375 Q 3.3273136230468747 2.423613427734375 3.2873574462890622 2.496619775390625 Q 3.2474012695312497 2.5696261230468753 3.181794213867187 2.621914453125 Q 3.1161871582031244 2.674202783203125 3.0328218017578124 2.7082395263671875 Q 2.9494564453124994 2.74227626953125 2.8626380859375 2.76200771484375 Q 2.8961815429687494 2.8231751953125 2.9366310058593745 2.8843426757812503 Q 2.9770804687499997 2.94551015625 3.021476220703125 3.001744775390625 Q 3.0658719726562498 3.0579793945312503 3.1107610107421872 3.1063214355468753 Q 3.1556500488281247 3.1546634765625003 3.19807265625 3.1906733642578127 Q 3.2404952636718747 3.226683251953125 3.2774917236328123 3.2469079833984376 Q 3.31448818359375 3.26713271484375 3.3430987792968745 3.26713271484375 Q 3.3569107910156246 3.26713271484375 3.381081811523437 3.264172998046875 Q 3.4052528320312496 3.2612132812500003 3.4338634277343747 3.2493744140625003 L 3.4486620117187496 3.293770166015625 M 5.209298876953125 3.253320703125 Q 5.11952080078125 3.289823876953125 5.045527880859375 3.3026493164062503 Q 4.9715349609374995 3.315474755859375 4.912340625 3.315474755859375 Q 4.8649851562499995 3.315474755859375 4.830455126953124 3.3100486083984375 Q 4.79592509765625 3.3046224609375003 4.771260791015624 3.2967298828125 Q 4.7426501953125 3.2878507324218753 4.721932177734375 3.2769984375 Q 4.6785229980468745 3.252334130859375 4.64596611328125 3.2128712402343753 Q 4.613409228515625 3.173408349609375 4.587265063476562 3.128026025390625 Q 4.561120898437499 3.0826437011718753 4.540402880859375 3.0343016601562502 Q 4.51968486328125 2.9859596191406252 4.499953417968749 2.94353701171875 L 4.475289111328125 2.891248681640625 Q 4.3756453125 2.91985927734375 4.289320239257812 2.9568557373046875 Q 4.202995166015625 2.993852197265625 4.135908251953125 3.0298620849609375 Q 4.068821337890625 3.06587197265625 4.022945727539062 3.0959624267578127 Q 3.9770701171874996 3.1260528808593753 3.9583252441406245 3.139864892578125 Q 3.9218220703124995 3.18031435546875 3.8764397460937494 3.21188466796875 Q 3.8310574218749993 3.24345498046875 3.7748228027343744 3.2656528564453127 Q 3.7185881835937495 3.2878507324218753 3.6495281249999993 3.2996895996093754 Q 3.5804680664062496 3.311528466796875 3.4975959960937493 3.311528466796875 L 3.4877302734374993 3.269105859375 Q 3.5834277832031245 3.253320703125 3.652981127929687 3.2079383789062503 Q 3.7225344726562497 3.1625560546875002 3.7728496582031243 3.0959624267578127 Q 3.8231648437499994 3.0293687988281253 3.8586814453124996 2.9460034423828128 Q 3.8941980468749993 2.8626380859375002 3.9218220703124995 2.76990029296875 Q 3.9376072265624993 2.716625390625 3.963751391601562 2.6574310546875 Q 3.9898955566406245 2.59823671875 4.026892016601562 2.5424953857421877 Q 4.063888476562499 2.486754052734375 4.1117372314453124 2.437918725585938 Q 4.159585986328125 2.3890833984375 4.220753466796874 2.35553994140625 Q 4.203981738281249 2.32396962890625 4.187703295898437 2.2909194580078127 Q 4.171424853515624 2.257869287109375 4.15662626953125 2.224325830078125 Q 4.135908251953125 2.184862939453125 4.1151902343749995 2.1370141845703126 Q 4.094472216796874 2.0891654296875 4.066354907226562 2.0482226806640624 Q 4.0382375976562495 2.007279931640625 4.000254565429687 1.979655908203125 Q 3.9622715332031246 1.952031884765625 3.9060369140624998 1.952031884765625 Q 3.8665740234374995 1.952031884765625 3.828590991210937 1.96091103515625 Q 3.7906079589843746 1.9697901855468751 3.7560779296874993 1.982615625 L 3.7422659179687496 1.942166162109375 Q 3.8280977050781244 1.91355556640625 3.916395922851562 1.8933308349609375 Q 4.004694140624999 1.8731061035156251 4.091512499999999 1.8731061035156251 Q 4.13294853515625 1.8731061035156251 4.173397998046875 1.8785322509765625 Q 4.213847460937499 1.8839583984375001 4.251337207031249 1.89777041015625 Q 4.283894091796874 1.90960927734375 4.314477832031249 1.9367400146484375 Q 4.3450615722656245 1.963870751953125 4.372685595703125 2.0008672119140627 Q 4.400309619140625 2.037863671875 4.424480639648437 2.080286279296875 Q 4.44865166015625 2.1227088867187502 4.469862963867187 2.165131494140625 Q 4.491074267578124 2.2075541015624998 4.5083392822265616 2.2455371337890626 Q 4.525604296875 2.283520166015625 4.5384297363281245 2.311144189453125 Q 4.625248095703125 2.4976063476562502 4.711079882812499 2.684561791992188 Q 4.796911669921874 2.871517236328125 4.895568896484375 3.0530465332031254 Q 4.913327197265625 3.08560341796875 4.933551928710937 3.11717373046875 Q 4.953776660156249 3.14874404296875 4.978934252929687 3.173408349609375 Q 5.004091845703124 3.19807265625 5.034675585937499 3.2128712402343753 Q 5.065259326171875 3.2276698242187503 5.10373564453125 3.226683251953125 Q 5.117547656249999 3.226683251953125 5.141718676757812 3.22372353515625 Q 5.165889697265625 3.220763818359375 5.194500292968749 3.208924951171875 L 5.209298876953125 3.253320703125 M 4.276001513671875 2.468995751953125 Q 4.250350634765624 2.510431787109375 4.229139331054687 2.5548275390625 Q 4.207928027343749 2.599223291015625 4.1901697265625 2.6450989013671875 Q 4.17241142578125 2.6909745117187502 4.157612841796874 2.7363568359375003 Q 4.1428142578125 2.78173916015625 4.128015673828124 2.8231751953125 Q 4.11321708984375 2.86855751953125 4.095952075195312 2.9114734130859374 Q 4.078687060546875 2.9543893066406253 4.056982470703124 2.99483876953125 Q 4.130975390624999 2.95142958984375 4.230619189453124 2.90407412109375 Q 4.33026298828125 2.85671865234375 4.443718798828124 2.8231751953125 L 4.276001513671875 2.468995751953125 M 6.15108076171875 3.305609033203125 L 5.4900773437499995 3.305609033203125 L 5.4900773437499995 3.269105859375 Q 5.544338818359375 3.269105859375 5.577882275390625 3.257760278320313 Q 5.611425732421875 3.2464146972656254 5.6306638916015626 3.2276698242187503 Q 5.649902050781249 3.208924951171875 5.6568080566406245 3.1842606445312502 Q 5.6637140624999995 3.1595963378906253 5.6637140624999995 3.131972314453125 L 5.6637140624999995 1.967817041015625 L 5.538419384765625 1.967817041015625 Q 5.486131054687499 1.967817041015625 5.428416577148437 1.9762029052734376 Q 5.370702099609375 1.98458876953125 5.3134809082031245 2.0087597900390626 Q 5.256259716796874 2.0329308105468753 5.202984814453124 2.07535341796875 Q 5.149709912109374 2.117776025390625 5.106300732421874 2.18584951171875 L 5.065851269531249 2.179930078125 Q 5.092488720703124 2.13849404296875 5.106794018554687 2.0886721435546876 Q 5.12109931640625 2.038850244140625 5.128991894531249 1.9944544921875 Q 5.1368844726562495 1.9431527343750001 5.1388576171875 1.890864404296875 L 6.51413935546875 1.890864404296875 Q 6.5003273437499995 1.918488427734375 6.492434765624999 1.9480855957031251 Q 6.4845421875 1.977682763671875 6.479609326171875 2.0067866455078125 Q 6.47467646484375 2.03589052734375 6.473196606445312 2.0620346923828126 Q 6.471716748046875 2.088178857421875 6.471716748046875 2.107910302734375 Q 6.471716748046875 2.11876259765625 6.471716748046875 2.1271484619140626 Q 6.471716748046875 2.135534326171875 6.472703320312499 2.141453759765625 Q 6.4736898925781245 2.148359765625 6.47467646484375 2.1542791992187498 L 6.438173291015625 2.1601986328125 Q 6.434227001953125 2.115802880859375 6.413015698242187 2.0842325683593748 Q 6.39180439453125 2.0526622558593752 6.360727368164062 2.031450952148438 Q 6.329650341796874 2.0102396484375 6.292160595703125 1.997414208984375 Q 6.254670849609375 1.98458876953125 6.218660961914062 1.9781760498046876 Q 6.18265107421875 1.971763330078125 6.15108076171875 1.9697901855468751 Q 6.119510449218749 1.967817041015625 6.100765576171875 1.967817041015625 L 5.97744404296875 1.967817041015625 L 5.97744404296875 3.131972314453125 Q 5.97744404296875 3.151703759765625 5.9833634765624995 3.175381494140625 Q 5.98928291015625 3.199059228515625 6.008027783203125 3.2197772460937504 Q 6.0267726562499995 3.240495263671875 6.060809399414062 3.2548005615234374 Q 6.094846142578125 3.269105859375 6.15108076171875 3.269105859375 L 6.15108076171875 3.305609033203125 M 7.872254736328125 2.2065675292968754 Q 7.843644140624999 2.1444134765625 7.797768530273437 2.0960714355468753 Q 7.7518929199218745 2.04772939453125 7.695165014648437 2.0141859374999997 Q 7.638437109374999 1.9806424804687501 7.5752964843749995 1.9633774658203125 Q 7.5121558593749995 1.946112451171875 7.450001806640625 1.946112451171875 Q 7.3819283203124995 1.946112451171875 7.321747412109374 1.9702834716796875 Q 7.261566503906249 1.9944544921875 7.209771459960937 2.0363838134765624 Q 7.157976416015624 2.078313134765625 7.1155538085937495 2.1360276123046873 Q 7.073131201171875 2.19374208984375 7.041067602539062 2.2603357177734376 Q 7.00900400390625 2.326929345703125 6.988285986328124 2.399935693359375 Q 6.967567968749999 2.4729420410156253 6.9586888183593745 2.5459483886718752 L 7.799248388671875 2.5459483886718752 Q 7.7785303710937495 2.587384423828125 7.767678076171874 2.6332600341796875 Q 7.75682578125 2.67913564453125 7.7518929199218745 2.71859853515625 Q 7.745973486328125 2.764967431640625 7.744986914062499 2.808376611328125 L 7.712430029296875 2.8142960449218752 Q 7.69960458984375 2.751155419921875 7.680859716796874 2.7097193847656253 Q 7.6621148437499995 2.668283349609375 7.624625097656249 2.644605615234375 Q 7.5871353515625 2.6209278808593752 7.524488012695312 2.6115554443359374 Q 7.461840673828124 2.6021830078125 7.361210302734374 2.6021830078125 L 6.952769384765625 2.6021830078125 L 6.952769384765625 2.644605615234375 Q 6.952769384765625 2.72451796875 6.971514257812499 2.80147060546875 Q 6.990259130859375 2.8784232421875 7.024789160156249 2.947976586914063 Q 7.059319189453125 3.017529931640625 7.109634375 3.0757376953125 Q 7.159949560546875 3.133945458984375 7.2221036132812495 3.1768613525390625 Q 7.284257666015624 3.2197772460937504 7.358250585937499 3.24345498046875 Q 7.4322435058593745 3.26713271484375 7.515115576171874 3.26713271484375 Q 7.590095068359375 3.26713271484375 7.647316259765624 3.252827416992188 Q 7.704537451171874 3.238522119140625 7.746466772460937 3.216817529296875 Q 7.788396093749999 3.195112939453125 7.817006689453125 3.1689687744140627 Q 7.84561728515625 3.1428246093750003 7.864362158203125 3.119146875 Q 7.88310703125 3.095469140625 7.892479467773438 3.0772175537109376 Q 7.9018519042968745 3.058965966796875 7.906784765625 3.0530465332031254 L 7.890999609374999 3.19215322265625 Q 7.868308447265624 3.22372353515625 7.824899267578124 3.252827416992188 Q 7.781490087890624 3.281931298828125 7.721802465820312 3.3051157470703125 Q 7.6621148437499995 3.3283001953125 7.588121923828124 3.34211220703125 Q 7.51412900390625 3.3559242187500002 7.428297216796874 3.3559242187500002 Q 7.2635396484375 3.3559242187500002 7.117033666992187 3.3075821777343752 Q 6.970527685546875 3.2592401367187502 6.859538305664062 3.1704486328125 Q 6.748548925781249 3.08165712890625 6.682941870117187 2.9558691650390627 Q 6.617334814453124 2.830081201171875 6.6153616699218745 2.67518935546875 Q 6.618321386718749 2.5153646484375 6.671103002929687 2.3876035400390627 Q 6.723884619140624 2.2598424316406254 6.812182836914062 2.164638208007813 Q 6.9004810546875 2.0694339843750003 7.017883154296874 2.0067866455078125 Q 7.1352852539062495 1.944139306640625 7.268472509765624 1.91355556640625 Q 7.338519140624999 1.896783837890625 7.4292837890625 1.8918509765625 Q 7.5200484375 1.886918115234375 7.611799658203124 1.886918115234375 Q 7.700591162109374 1.886918115234375 7.779023657226562 1.888891259765625 Q 7.857456152343749 1.890864404296875 7.910731054687499 1.890864404296875 Q 7.899878759765625 1.9372333007812501 7.8954391845703125 1.9732431884765624 Q 7.890999609374999 2.009253076171875 7.890999609374999 2.0408233886718747 Q 7.890999609374999 2.085219140625 7.897905615234374 2.1232021728515624 Q 7.904811621093749 2.161185205078125 7.91665048828125 2.204594384765625 L 7.872254736328125 2.2065675292968754" fill="url(#gradient-98bf88ab-4556-4943-be00-b4e5b4b78ff3)" fill-rule="nonzero"></path></g><g><path d=" M 0.832732895507811 4.007496826171875 C 0.832732895507811 4.002906826171875 0.835282895507811 4.000866826171875 0.839362895507811 4.000866826171875 L 0.9097428955078111 4.000866826171875 C 0.934222895507811 4.000866826171875 0.950032895507811 4.009026826171875 0.959212895507811 4.009026826171875 C 0.9643128955078111 4.009026826171875 0.969412895507811 4.000356826171875 0.972982895507811 3.989646826171875 C 0.976552895507811 3.978936826171875 0.979612895507811 3.9707768261718748 0.979612895507811 3.965166826171875 C 0.979612895507811 3.961596826171875 0.977062895507811 3.960576826171875 0.971962895507811 3.960576826171875 L 0.839362895507811 3.960576826171875 C 0.835282895507811 3.960576826171875 0.832732895507811 3.958536826171875 0.832732895507811 3.953946826171875 C 0.832732895507811 3.9162068261718748 0.834262895507811 3.868776826171875 0.834262895507811 3.846846826171875 C 0.834262895507811 3.840726826171875 0.837322895507811 3.837666826171875 0.843442895507811 3.837666826171875 L 0.940342895507811 3.837666826171875 C 0.9750228955078111 3.837666826171875 0.994912895507811 3.8509268261718748 1.004092895507811 3.8509268261718748 C 1.009192895507811 3.8509268261718748 1.015312895507811 3.837156826171875 1.018882895507811 3.8264468261718747 C 1.022452895507811 3.815736826171875 1.025512895507811 3.807576826171875 1.025512895507811 3.801966826171875 C 1.025512895507811 3.7973768261718748 1.022962895507811 3.7973768261718748 1.017862895507811 3.7973768261718748 L 0.793972895507811 3.7973768261718748 C 0.786832895507811 3.7973768261718748 0.781732895507811 3.800946826171875 0.781732895507811 3.809106826171875 C 0.781732895507811 3.834096826171875 0.785812895507811 3.877446826171875 0.785812895507811 3.9697568261718748 C 0.785812895507811 4.056456826171875 0.781732895507811 4.100316826171875 0.781732895507811 4.119186826171875 C 0.781732895507811 4.127346826171875 0.786832895507811 4.130916826171875 0.793972895507811 4.130916826171875 L 0.824062895507811 4.130916826171875 C 0.831202895507811 4.130916826171875 0.836302895507811 4.127346826171875 0.836302895507811 4.119186826171875 C 0.836302895507811 4.100316826171875 0.832732895507811 4.057476826171875 0.832732895507811 4.007496826171875 M 1.247108393554686 3.986586826171875 C 1.290968393554686 3.958536826171875 1.326158393554686 3.929976826171875 1.326158393554686 3.884586826171875 C 1.326158393554686 3.820836826171875 1.282808393554686 3.7973768261718748 1.210898393554686 3.7973768261718748 L 1.0849283935546858 3.7973768261718748 C 1.077788393554686 3.7973768261718748 1.072688393554686 3.800946826171875 1.072688393554686 3.809106826171875 C 1.072688393554686 3.834096826171875 1.076768393554686 3.877446826171875 1.076768393554686 3.9697568261718748 C 1.076768393554686 4.056456826171875 1.072688393554686 4.1105168261718745 1.072688393554686 4.119186826171875 C 1.072688393554686 4.127346826171875 1.077788393554686 4.130916826171875 1.0849283935546858 4.130916826171875 L 1.115018393554686 4.130916826171875 C 1.122158393554686 4.130916826171875 1.127258393554686 4.127346826171875 1.127258393554686 4.119186826171875 C 1.127258393554686 4.1105168261718745 1.125218393554686 4.072776826171875 1.125218393554686 4.040646826171875 C 1.125218393554686 4.0345268261718745 1.1287883935546859 4.031976826171875 1.134398393554686 4.029426826171875 C 1.142048393554686 4.025856826171875 1.189478393554686 4.010556826171875 1.1920283935546858 4.010556826171875 C 1.1945783935546859 4.010556826171875 1.198148393554686 4.013616826171875 1.201718393554686 4.018206826171875 C 1.242008393554686 4.065636826171875 1.2491483935546859 4.085016826171875 1.271588393554686 4.115106826171875 C 1.280258393554686 4.126836826171875 1.282298393554686 4.130916826171875 1.2930083935546859 4.130916826171875 L 1.342478393554686 4.130916826171875 C 1.348598393554686 4.130916826171875 1.350638393554686 4.126836826171875 1.350638393554686 4.122756826171875 C 1.350638393554686 4.116126826171875 1.341458393554686 4.110006826171875 1.337378393554686 4.105926826171875 C 1.293518393554686 4.063086826171875 1.278218393554686 4.040136826171875 1.2465983935546858 3.997806826171875 C 1.244558393554686 3.995256826171875 1.243028393554686 3.993216826171875 1.243028393554686 3.9911768261718747 C 1.243028393554686 3.989136826171875 1.244558393554686 3.988116826171875 1.247108393554686 3.986586826171875 M 1.125218393554686 3.9804668261718748 L 1.125218393554686 3.846846826171875 C 1.125218393554686 3.840726826171875 1.1282783935546858 3.837666826171875 1.134398393554686 3.837666826171875 L 1.219568393554686 3.837666826171875 C 1.253228393554686 3.837666826171875 1.275668393554686 3.858066826171875 1.275668393554686 3.882546826171875 C 1.275668393554686 3.909576826171875 1.2476183935546858 3.935076826171875 1.2154883935546859 3.953436826171875 C 1.1833583935546859 3.971796826171875 1.132868393554686 3.985566826171875 1.132868393554686 3.985566826171875 C 1.1287883935546859 3.986586826171875 1.125218393554686 3.986076826171875 1.125218393554686 3.9804668261718748 M 1.468712856445311 3.960576826171875 C 1.464632856445311 3.960576826171875 1.462082856445311 3.958536826171875 1.462082856445311 3.953946826171875 C 1.462082856445311 3.9162068261718748 1.463612856445311 3.868776826171875 1.463612856445311 3.846846826171875 C 1.463612856445311 3.840726826171875 1.4666728564453109 3.837666826171875 1.472792856445311 3.837666826171875 L 1.569692856445311 3.837666826171875 C 1.604372856445311 3.837666826171875 1.624262856445311 3.8509268261718748 1.633442856445311 3.8509268261718748 C 1.6385428564453108 3.8509268261718748 1.644662856445311 3.837156826171875 1.648232856445311 3.8264468261718747 C 1.651802856445311 3.815736826171875 1.654862856445311 3.807576826171875 1.654862856445311 3.801966826171875 C 1.654862856445311 3.799416826171875 1.652312856445311 3.7973768261718748 1.647212856445311 3.7973768261718748 L 1.4233228564453109 3.7973768261718748 C 1.416182856445311 3.7973768261718748 1.411082856445311 3.800946826171875 1.411082856445311 3.809106826171875 C 1.411082856445311 3.834096826171875 1.415162856445311 3.877446826171875 1.415162856445311 3.9697568261718748 C 1.415162856445311 4.056456826171875 1.411082856445311 4.100316826171875 1.411082856445311 4.119186826171875 C 1.411082856445311 4.127346826171875 1.416182856445311 4.130916826171875 1.4233228564453109 4.130916826171875 L 1.641602856445311 4.130916826171875 C 1.647722856445311 4.130916826171875 1.651802856445311 4.129896826171875 1.653332856445311 4.122756826171875 C 1.656392856445311 4.108476826171875 1.664042856445311 4.083996826171875 1.664042856445311 4.076856826171875 C 1.664042856445311 4.071756826171875 1.661492856445311 4.070226826171875 1.657922856445311 4.070226826171875 C 1.648742856445311 4.070226826171875 1.627322856445311 4.090626826171875 1.5645928564453109 4.090626826171875 L 1.471262856445311 4.090626826171875 C 1.4666728564453109 4.090626826171875 1.463612856445311 4.088076826171875 1.463612856445311 4.082466826171875 C 1.463612856445311 4.072776826171875 1.462082856445311 4.040646826171875 1.462082856445311 4.007496826171875 C 1.462082856445311 4.002906826171875 1.464632856445311 4.000866826171875 1.468712856445311 4.000866826171875 L 1.539092856445311 4.000866826171875 C 1.5635728564453109 4.000866826171875 1.579382856445311 4.009026826171875 1.588562856445311 4.009026826171875 C 1.593662856445311 4.009026826171875 1.598762856445311 4.000356826171875 1.602332856445311 3.989646826171875 C 1.605902856445311 3.978936826171875 1.608962856445311 3.9707768261718748 1.608962856445311 3.965166826171875 C 1.608962856445311 3.960576826171875 1.605902856445311 3.960576826171875 1.600802856445311 3.960576826171875 M 1.945819350585936 3.865716826171875 C 1.9498993505859359 3.865716826171875 1.951939350585936 3.862656826171875 1.951939350585936 3.858576826171875 C 1.951939350585936 3.843276826171875 1.946839350585936 3.825426826171875 1.946839350585936 3.808596826171875 C 1.946839350585936 3.801456826171875 1.942249350585936 3.797886826171875 1.9371493505859358 3.7973768261718748 C 1.922869350585936 3.7953368261718747 1.897369350585936 3.791766826171875 1.843819350585936 3.791766826171875 C 1.7744593505859358 3.791766826171875 1.728049350585936 3.831036826171875 1.728049350585936 3.880506826171875 C 1.728049350585936 3.996276826171875 1.922359350585936 3.9580268261718747 1.921849350585936 4.038096826171875 C 1.921339350585936 4.073796826171875 1.888699350585936 4.095216826171875 1.843309350585936 4.095216826171875 C 1.7979193505859359 4.095216826171875 1.7632393505859358 4.066656826171875 1.7509993505859358 4.048806826171875 C 1.744369350585936 4.039116826171875 1.7397793505859358 4.031976826171875 1.734679350585936 4.031976826171875 C 1.7295793505859358 4.031976826171875 1.726009350585936 4.036056826171875 1.726009350585936 4.0442168261718745 C 1.726009350585936 4.065636826171875 1.7214193505859359 4.088076826171875 1.7214193505859359 4.098276826171875 C 1.7214193505859359 4.105926826171875 1.728559350585936 4.108986826171875 1.734679350585936 4.111026826171875 C 1.7530393505859359 4.117146826171875 1.7872093505859359 4.136016826171875 1.843819350585936 4.136016826171875 C 1.919809350585936 4.136016826171875 1.972849350585936 4.096746826171875 1.972849350585936 4.0248368261718745 C 1.972849350585936 3.914676826171875 1.778029350585936 3.951396826171875 1.778029350585936 3.878976826171875 C 1.778029350585936 3.851436826171875 1.804549350585936 3.834606826171875 1.841779350585936 3.834606826171875 C 1.921339350585936 3.834606826171875 1.932049350585936 3.865716826171875 1.945819350585936 3.865716826171875 M 2.0960061328124984 4.027386826171875 C 2.0960061328124984 4.023306826171875 2.0975361328124986 4.021266826171875 2.1016161328124987 4.021266826171875 C 2.1204861328124984 4.020246826171875 2.1475161328124983 4.019736826171875 2.1903561328124983 4.019736826171875 C 2.2331961328124983 4.019736826171875 2.2602261328124986 4.020246826171875 2.2790961328124983 4.021266826171875 C 2.2831761328124984 4.021266826171875 2.2847061328124987 4.023306826171875 2.2847061328124987 4.027386826171875 C 2.2847061328124987 4.048806826171875 2.2826661328124986 4.1105168261718745 2.2826661328124986 4.119186826171875 C 2.2826661328124986 4.127346826171875 2.2877661328124983 4.130916826171875 2.2949061328124984 4.130916826171875 L 2.3249961328124984 4.130916826171875 C 2.3321361328124985 4.130916826171875 2.3372361328124986 4.127346826171875 2.3372361328124986 4.119186826171875 C 2.3372361328124986 4.1105168261718745 2.3331561328124986 4.048806826171875 2.3331561328124986 3.962106826171875 C 2.3331561328124986 3.875916826171875 2.3372361328124986 3.8177768261718747 2.3372361328124986 3.809106826171875 C 2.3372361328124986 3.800946826171875 2.3321361328124985 3.7973768261718748 2.3249961328124984 3.7973768261718748 L 2.2949061328124984 3.7973768261718748 C 2.2877661328124983 3.7973768261718748 2.2826661328124986 3.800946826171875 2.2826661328124986 3.809106826171875 C 2.2826661328124986 3.8177768261718747 2.2872561328124985 3.875916826171875 2.2872561328124985 3.971796826171875 C 2.2872561328124985 3.975876826171875 2.2857261328124987 3.977916826171875 2.2816461328124986 3.977916826171875 C 2.2627761328124985 3.978936826171875 2.2331961328124983 3.9794468261718747 2.1903561328124983 3.9794468261718747 C 2.1475161328124983 3.9794468261718747 2.1179361328124986 3.978936826171875 2.0990661328124984 3.977916826171875 C 2.0949861328124983 3.977916826171875 2.0934561328124985 3.975876826171875 2.0934561328124985 3.971796826171875 C 2.0934561328124985 3.876426826171875 2.0970261328124984 3.817266826171875 2.0970261328124984 3.809106826171875 C 2.0970261328124984 3.800946826171875 2.0919261328124987 3.7973768261718748 2.0847861328124986 3.7973768261718748 L 2.0546961328124986 3.7973768261718748 C 2.0475561328124985 3.7973768261718748 2.0424561328124984 3.800946826171875 2.0424561328124984 3.809106826171875 C 2.0424561328124984 3.8177768261718747 2.0465361328124985 3.875916826171875 2.0465361328124985 3.962106826171875 C 2.0465361328124985 4.048806826171875 2.0424561328124984 4.1105168261718745 2.0424561328124984 4.119186826171875 C 2.0424561328124984 4.127346826171875 2.0475561328124985 4.130916826171875 2.0546961328124986 4.130916826171875 L 2.0847861328124986 4.130916826171875 C 2.0919261328124987 4.130916826171875 2.0970261328124984 4.127346826171875 2.0970261328124984 4.119186826171875 C 2.0970261328124984 4.1105168261718745 2.0960061328124984 4.049316826171875 2.0960061328124984 4.027386826171875 M 2.544821323242186 3.963636826171875 C 2.544821323242186 4.063596826171875 2.624381323242186 4.135506826171875 2.719241323242186 4.135506826171875 C 2.814101323242186 4.135506826171875 2.893661323242186 4.063596826171875 2.893661323242186 3.963636826171875 C 2.893661323242186 3.863676826171875 2.814101323242186 3.791766826171875 2.719241323242186 3.791766826171875 C 2.624381323242186 3.791766826171875 2.544821323242186 3.863676826171875 2.544821323242186 3.963636826171875 M 2.594291323242186 3.963636826171875 C 2.594291323242186 3.887136826171875 2.647841323242186 3.8381768261718747 2.719241323242186 3.8381768261718747 C 2.790641323242186 3.8381768261718747 2.843681323242186 3.887136826171875 2.843681323242186 3.963636826171875 C 2.843681323242186 4.040136826171875 2.790641323242186 4.089606826171875 2.719241323242186 4.089606826171875 C 2.647841323242186 4.089606826171875 2.594291323242186 4.040136826171875 2.594291323242186 3.963636826171875 M 3.130551342773436 3.986586826171875 C 3.174411342773436 3.958536826171875 3.209601342773436 3.929976826171875 3.209601342773436 3.884586826171875 C 3.209601342773436 3.820836826171875 3.1662513427734362 3.7973768261718748 3.094341342773436 3.7973768261718748 L 2.968371342773436 3.7973768261718748 C 2.961231342773436 3.7973768261718748 2.956131342773436 3.800946826171875 2.956131342773436 3.809106826171875 C 2.956131342773436 3.834096826171875 2.960211342773436 3.877446826171875 2.960211342773436 3.9697568261718748 C 2.960211342773436 4.056456826171875 2.956131342773436 4.1105168261718745 2.956131342773436 4.119186826171875 C 2.956131342773436 4.127346826171875 2.961231342773436 4.130916826171875 2.968371342773436 4.130916826171875 L 2.998461342773436 4.130916826171875 C 3.005601342773436 4.130916826171875 3.010701342773436 4.127346826171875 3.010701342773436 4.119186826171875 C 3.010701342773436 4.1105168261718745 3.008661342773436 4.072776826171875 3.008661342773436 4.040646826171875 C 3.008661342773436 4.0345268261718745 3.012231342773436 4.031976826171875 3.017841342773436 4.029426826171875 C 3.025491342773436 4.025856826171875 3.072921342773436 4.010556826171875 3.075471342773436 4.010556826171875 C 3.078021342773436 4.010556826171875 3.081591342773436 4.013616826171875 3.085161342773436 4.018206826171875 C 3.1254513427734363 4.065636826171875 3.132591342773436 4.085016826171875 3.155031342773436 4.115106826171875 C 3.163701342773436 4.126836826171875 3.165741342773436 4.130916826171875 3.176451342773436 4.130916826171875 L 3.225921342773436 4.130916826171875 C 3.232041342773436 4.130916826171875 3.234081342773436 4.126836826171875 3.234081342773436 4.122756826171875 C 3.234081342773436 4.116126826171875 3.224901342773436 4.110006826171875 3.2208213427734362 4.105926826171875 C 3.1769613427734362 4.063086826171875 3.161661342773436 4.040136826171875 3.130041342773436 3.997806826171875 C 3.128001342773436 3.995256826171875 3.126471342773436 3.993216826171875 3.126471342773436 3.9911768261718747 C 3.126471342773436 3.989136826171875 3.128001342773436 3.988116826171875 3.130551342773436 3.986586826171875 M 3.008661342773436 3.9804668261718748 L 3.008661342773436 3.846846826171875 C 3.008661342773436 3.840726826171875 3.011721342773436 3.837666826171875 3.017841342773436 3.837666826171875 L 3.103011342773436 3.837666826171875 C 3.136671342773436 3.837666826171875 3.159111342773436 3.858066826171875 3.159111342773436 3.882546826171875 C 3.159111342773436 3.909576826171875 3.131061342773436 3.935076826171875 3.098931342773436 3.953436826171875 C 3.066801342773436 3.971796826171875 3.0163113427734363 3.985566826171875 3.0163113427734363 3.985566826171875 C 3.012231342773436 3.986586826171875 3.008661342773436 3.986076826171875 3.008661342773436 3.9804668261718748 M 3.545447299804686 3.872856826171875 C 3.551057299804686 3.880506826171875 3.5536072998046864 3.8830568261718748 3.5581972998046862 3.8830568261718748 C 3.561767299804686 3.8830568261718748 3.5643172998046864 3.879486826171875 3.565847299804686 3.874386826171875 C 3.5689072998046862 3.862146826171875 3.5694172998046865 3.840726826171875 3.5694172998046865 3.828996826171875 C 3.5694172998046865 3.822366826171875 3.5622772998046863 3.816246826171875 3.5505472998046863 3.810126826171875 C 3.5321872998046864 3.800436826171875 3.501587299804686 3.791766826171875 3.467417299804686 3.791766826171875 C 3.3414472998046865 3.791766826171875 3.2644372998046864 3.879996826171875 3.2644372998046864 3.974856826171875 C 3.2644372998046864 4.077876826171875 3.3526672998046863 4.136016826171875 3.4490572998046862 4.136016826171875 C 3.519947299804686 4.136016826171875 3.5495272998046863 4.116636826171875 3.5816572998046863 4.092666826171875 C 3.589307299804686 4.087056826171875 3.5923672998046863 4.078896826171875 3.5923672998046863 4.066146826171875 L 3.5923672998046863 3.972816826171875 C 3.5923672998046863 3.964146826171875 3.5877772998046864 3.9580268261718747 3.5780872998046864 3.9580268261718747 L 3.5107672998046864 3.9580268261718747 C 3.5046472998046863 3.9580268261718747 3.502607299804686 3.960576826171875 3.502607299804686 3.965166826171875 C 3.502607299804686 3.977916826171875 3.508217299804686 4.001886826171875 3.5173972998046863 4.001886826171875 C 3.5250472998046862 4.001886826171875 3.531677299804686 4.000866826171875 3.5428972998046864 4.000866826171875 C 3.5464672998046862 4.000866826171875 3.5485072998046863 4.002396826171875 3.5485072998046863 4.005966826171875 L 3.5485072998046863 4.053906826171875 C 3.5485072998046863 4.059516826171875 3.5449372998046864 4.065636826171875 3.542387299804686 4.068186826171875 C 3.5398372998046863 4.070736826171875 3.5046472998046863 4.095216826171875 3.453647299804686 4.095216826171875 C 3.3705172998046864 4.095216826171875 3.3195172998046862 4.047786826171875 3.3195172998046862 3.975876826171875 C 3.3195172998046862 3.892236826171875 3.376637299804686 3.834606826171875 3.4699672998046864 3.834606826171875 C 3.5066872998046863 3.834606826171875 3.533717299804686 3.857046826171875 3.545447299804686 3.872856826171875 M 3.8210915917968737 3.804516826171875 C 3.815481591796874 3.792786826171875 3.8114015917968738 3.791766826171875 3.800181591796874 3.791766826171875 C 3.7889615917968738 3.791766826171875 3.7848815917968737 3.792786826171875 3.779781591796874 3.804516826171875 C 3.7721315917968736 3.821856826171875 3.708381591796874 3.964146826171875 3.668601591796874 4.050336826171875 C 3.6553415917968737 4.079406826171875 3.641061591796874 4.103376826171875 3.6339215917968737 4.117146826171875 C 3.633411591796874 4.118676826171875 3.631371591796874 4.122756826171875 3.631371591796874 4.125306826171875 C 3.631371591796874 4.128876826171875 3.633411591796874 4.130916826171875 3.6380015917968738 4.130916826171875 L 3.683901591796874 4.130916826171875 C 3.6874715917968737 4.130916826171875 3.691041591796874 4.128366826171875 3.6925715917968738 4.121736826171875 C 3.6961415917968736 4.107456826171875 3.702771591796874 4.089606826171875 3.7099115917968737 4.073796826171875 C 3.712461591796874 4.068186826171875 3.717051591796874 4.065636826171875 3.7206215917968737 4.065636826171875 L 3.879741591796874 4.065636826171875 C 3.8833115917968737 4.065636826171875 3.887901591796874 4.068186826171875 3.890451591796874 4.073796826171875 C 3.897591591796874 4.089606826171875 3.904221591796874 4.107456826171875 3.9077915917968737 4.121736826171875 C 3.909321591796874 4.128366826171875 3.912891591796874 4.130916826171875 3.9164615917968737 4.130916826171875 L 3.9623615917968737 4.130916826171875 C 3.9669515917968736 4.130916826171875 3.9689915917968737 4.128876826171875 3.9689915917968737 4.125306826171875 C 3.9689915917968737 4.122756826171875 3.9669515917968736 4.118676826171875 3.966441591796874 4.117146826171875 C 3.9593015917968737 4.103376826171875 3.945021591796874 4.079406826171875 3.931761591796874 4.050336826171875 C 3.891981591796874 3.964146826171875 3.8287415917968737 3.821856826171875 3.8210915917968737 3.804516826171875 M 3.739491591796874 4.019736826171875 C 3.735921591796874 4.019736826171875 3.733881591796874 4.017696826171875 3.733881591796874 4.015656826171875 C 3.733881591796874 4.009026826171875 3.775701591796874 3.920796826171875 3.794061591796874 3.877956826171875 C 3.7966115917968737 3.8723468261718748 3.7976315917968737 3.869796826171875 3.800181591796874 3.869796826171875 C 3.802731591796874 3.869796826171875 3.803751591796874 3.8723468261718748 3.8063015917968737 3.877956826171875 C 3.8246615917968736 3.920796826171875 3.866481591796874 4.009026826171875 3.866481591796874 4.015656826171875 C 3.866481591796874 4.017696826171875 3.864441591796874 4.019736826171875 3.8608715917968737 4.019736826171875 M 4.284921401367186 3.962106826171875 L 4.284921401367186 4.0442168261718745 C 4.284921401367186 4.046766826171875 4.283901401367186 4.048296826171875 4.282371401367186 4.048296826171875 C 4.280841401367186 4.048296826171875 4.279821401367186 4.047276826171875 4.277271401367186 4.0442168261718745 C 4.221681401367186 3.971796826171875 4.128861401367186 3.854496826171875 4.095711401367186 3.809616826171875 C 4.089081401367186 3.800436826171875 4.080921401367186 3.7973768261718748 4.072251401367186 3.7973768261718748 L 4.042161401367186 3.7973768261718748 C 4.035021401367186 3.7973768261718748 4.0299214013671865 3.800946826171875 4.0299214013671865 3.809106826171875 C 4.0299214013671865 3.8177768261718747 4.0340014013671865 3.875406826171875 4.0340014013671865 3.962106826171875 C 4.0340014013671865 4.048806826171875 4.0299214013671865 4.1105168261718745 4.0299214013671865 4.119186826171875 C 4.0299214013671865 4.127346826171875 4.035021401367186 4.130916826171875 4.042161401367186 4.130916826171875 L 4.072251401367186 4.130916826171875 C 4.079391401367186 4.130916826171875 4.0844914013671865 4.127346826171875 4.0844914013671865 4.119186826171875 C 4.0844914013671865 4.1105168261718745 4.079391401367186 4.048296826171875 4.079391401367186 3.962106826171875 C 4.079391401367186 3.929976826171875 4.080921401367186 3.879996826171875 4.080921401367186 3.879996826171875 C 4.080921401367186 3.877446826171875 4.080921401367186 3.874896826171875 4.083981401367186 3.874896826171875 C 4.087041401367186 3.874896826171875 4.089081401367186 3.877956826171875 4.091631401367186 3.881526826171875 C 4.125291401367186 3.924366826171875 4.261461401367186 4.097256826171875 4.287981401367186 4.128876826171875 C 4.292571401367186 4.133976826171875 4.296651401367186 4.136526826171875 4.302261401367186 4.136526826171875 C 4.329801401367186 4.136526826171875 4.329291401367186 4.126326826171875 4.329291401367186 4.115616826171875 C 4.329291401367186 4.106946826171875 4.330311401367186 4.048296826171875 4.330311401367186 3.962106826171875 C 4.330311401367186 3.855006826171875 4.334391401367186 3.8177768261718747 4.334391401367186 3.809106826171875 C 4.334391401367186 3.800946826171875 4.329291401367186 3.7973768261718748 4.3221514013671865 3.7973768261718748 L 4.292061401367186 3.7973768261718748 C 4.284921401367186 3.7973768261718748 4.279821401367186 3.800946826171875 4.279821401367186 3.809106826171875 C 4.279821401367186 3.8177768261718747 4.284921401367186 3.854496826171875 4.284921401367186 3.962106826171875 M 4.475400922851561 3.962106826171875 C 4.475400922851561 3.875916826171875 4.479480922851561 3.8177768261718747 4.479480922851561 3.809106826171875 C 4.479480922851561 3.800946826171875 4.474380922851561 3.7973768261718748 4.467240922851562 3.7973768261718748 L 4.437150922851561 3.7973768261718748 C 4.430010922851562 3.7973768261718748 4.424910922851561 3.800946826171875 4.424910922851561 3.809106826171875 C 4.424910922851561 3.8177768261718747 4.428990922851561 3.875406826171875 4.428990922851561 3.962106826171875 C 4.428990922851561 4.048806826171875 4.424910922851561 4.1105168261718745 4.424910922851561 4.119186826171875 C 4.424910922851561 4.127346826171875 4.430010922851562 4.130916826171875 4.437150922851561 4.130916826171875 L 4.467240922851562 4.130916826171875 C 4.474380922851561 4.130916826171875 4.479480922851561 4.127346826171875 4.479480922851561 4.119186826171875 C 4.479480922851561 4.1105168261718745 4.475400922851561 4.048296826171875 4.475400922851561 3.962106826171875 M 4.742905136718749 3.791766826171875 C 4.622035136718749 3.791766826171875 4.550125136718749 3.879996826171875 4.550125136718749 3.974856826171875 C 4.550125136718749 4.077876826171875 4.633255136718749 4.136016826171875 4.729645136718749 4.136016826171875 C 4.800535136718749 4.136016826171875 4.834705136718749 4.115106826171875 4.854595136718749 4.100316826171875 C 4.864795136718749 4.092666826171875 4.866835136718749 4.089606826171875 4.866835136718749 4.085016826171875 C 4.866835136718749 4.076856826171875 4.852555136718749 4.048806826171875 4.8459251367187495 4.048806826171875 C 4.842355136718749 4.048806826171875 4.840825136718749 4.050336826171875 4.831645136718749 4.058496826171875 C 4.813795136718749 4.074306826171875 4.790335136718749 4.093686826171875 4.739335136718749 4.093686826171875 C 4.656205136718749 4.093686826171875 4.605205136718749 4.051356826171875 4.605205136718749 3.975876826171875 C 4.605205136718749 3.892236826171875 4.657225136718749 3.834606826171875 4.745455136718749 3.834606826171875 C 4.782175136718749 3.834606826171875 4.809205136718749 3.857046826171875 4.820935136718749 3.872856826171875 C 4.826545136718749 3.880506826171875 4.829095136718749 3.8830568261718748 4.833685136718749 3.8830568261718748 C 4.837255136718749 3.8830568261718748 4.839805136718749 3.879486826171875 4.841335136718749 3.874386826171875 C 4.844395136718749 3.862146826171875 4.844905136718749 3.840726826171875 4.844905136718749 3.828996826171875 C 4.844905136718749 3.822366826171875 4.837765136718749 3.816246826171875 4.826035136718749 3.810126826171875 C 4.807675136718749 3.800436826171875 4.777075136718749 3.791766826171875 4.742905136718749 3.791766826171875 M 5.251900576171874 3.804516826171875 C 5.246290576171874 3.792786826171875 5.242210576171874 3.791766826171875 5.230990576171874 3.791766826171875 C 5.219770576171874 3.791766826171875 5.215690576171874 3.792786826171875 5.210590576171874 3.804516826171875 C 5.202940576171874 3.821856826171875 5.139190576171874 3.964146826171875 5.0994105761718735 4.050336826171875 C 5.086150576171874 4.079406826171875 5.071870576171873 4.103376826171875 5.064730576171874 4.117146826171875 C 5.0642205761718735 4.118676826171875 5.0621805761718734 4.122756826171875 5.0621805761718734 4.125306826171875 C 5.0621805761718734 4.128876826171875 5.0642205761718735 4.130916826171875 5.068810576171874 4.130916826171875 L 5.114710576171873 4.130916826171875 C 5.118280576171874 4.130916826171875 5.121850576171874 4.128366826171875 5.123380576171874 4.121736826171875 C 5.126950576171874 4.107456826171875 5.133580576171874 4.089606826171875 5.140720576171874 4.073796826171875 C 5.143270576171874 4.068186826171875 5.147860576171873 4.065636826171875 5.151430576171874 4.065636826171875 L 5.310550576171874 4.065636826171875 C 5.314120576171874 4.065636826171875 5.318710576171874 4.068186826171875 5.321260576171873 4.073796826171875 C 5.328400576171874 4.089606826171875 5.3350305761718735 4.107456826171875 5.338600576171874 4.121736826171875 C 5.340130576171874 4.128366826171875 5.343700576171874 4.130916826171875 5.347270576171874 4.130916826171875 L 5.393170576171874 4.130916826171875 C 5.397760576171874 4.130916826171875 5.399800576171874 4.128876826171875 5.399800576171874 4.125306826171875 C 5.399800576171874 4.122756826171875 5.397760576171874 4.118676826171875 5.397250576171874 4.117146826171875 C 5.390110576171874 4.103376826171875 5.375830576171873 4.079406826171875 5.362570576171874 4.050336826171875 C 5.322790576171874 3.964146826171875 5.259550576171874 3.821856826171875 5.251900576171874 3.804516826171875 M 5.170300576171874 4.019736826171875 C 5.166730576171874 4.019736826171875 5.164690576171874 4.017696826171875 5.164690576171874 4.015656826171875 C 5.164690576171874 4.009026826171875 5.2065105761718735 3.920796826171875 5.224870576171874 3.877956826171875 C 5.227420576171874 3.8723468261718748 5.228440576171874 3.869796826171875 5.230990576171874 3.869796826171875 C 5.233540576171874 3.869796826171875 5.234560576171874 3.8723468261718748 5.237110576171874 3.877956826171875 C 5.255470576171874 3.920796826171875 5.297290576171874 4.009026826171875 5.297290576171874 4.015656826171875 C 5.297290576171874 4.017696826171875 5.295250576171874 4.019736826171875 5.291680576171874 4.019736826171875 M 5.579044409179686 4.136016826171875 C 5.667784409179686 4.136016826171875 5.722354409179686 4.078896826171875 5.722354409179686 3.998826826171875 C 5.722354409179686 3.870306826171875 5.725924409179686 3.8177768261718747 5.725924409179686 3.809106826171875 C 5.725924409179686 3.800946826171875 5.720824409179686 3.7973768261718748 5.713684409179686 3.7973768261718748 L 5.683594409179686 3.7973768261718748 C 5.676454409179686 3.7973768261718748 5.671354409179686 3.800946826171875 5.671354409179686 3.809106826171875 C 5.671354409179686 3.8177768261718747 5.6749244091796855 3.890706826171875 5.6749244091796855 3.976896826171875 C 5.6749244091796855 4.063086826171875 5.638204409179686 4.094196826171875 5.579044409179686 4.094196826171875 C 5.519884409179686 4.094196826171875 5.483164409179686 4.063086826171875 5.483164409179686 3.976896826171875 C 5.483164409179686 3.890706826171875 5.486734409179686 3.8177768261718747 5.486734409179686 3.809106826171875 C 5.486734409179686 3.800946826171875 5.481634409179686 3.7973768261718748 5.474494409179686 3.7973768261718748 L 5.444404409179686 3.7973768261718748 C 5.437264409179686 3.7973768261718748 5.432164409179686 3.800946826171875 5.432164409179686 3.809106826171875 C 5.432164409179686 3.8177768261718747 5.435734409179686 3.870306826171875 5.435734409179686 3.998826826171875 C 5.435734409179686 4.078896826171875 5.490304409179686 4.136016826171875 5.579044409179686 4.136016826171875 M 5.951603144531249 3.962106826171875 C 5.951603144531249 3.910086826171875 5.951603144531249 3.870816826171875 5.954153144531249 3.843786826171875 C 5.954663144531248 3.8381768261718747 5.959253144531249 3.835116826171875 5.965373144531249 3.835116826171875 L 6.006173144531249 3.835116826171875 C 6.0408531445312486 3.835116826171875 6.056663144531249 3.8509268261718748 6.064823144531249 3.8509268261718748 C 6.068393144531249 3.8509268261718748 6.070433144531249 3.8478668261718747 6.070433144531249 3.843786826171875 C 6.070433144531249 3.835116826171875 6.064823144531249 3.823896826171875 6.060743144531249 3.804516826171875 C 6.059723144531249 3.799926826171875 6.0581931445312485 3.7973768261718748 6.053093144531249 3.7973768261718748 L 5.803193144531249 3.7973768261718748 C 5.798093144531249 3.7973768261718748 5.796563144531249 3.799926826171875 5.795543144531249 3.804516826171875 C 5.7914631445312486 3.823896826171875 5.785853144531249 3.835116826171875 5.785853144531249 3.843786826171875 C 5.785853144531249 3.8478668261718747 5.787893144531249 3.8509268261718748 5.7914631445312486 3.8509268261718748 C 5.799623144531249 3.8509268261718748 5.815433144531249 3.835116826171875 5.850113144531249 3.835116826171875 L 5.889893144531249 3.835116826171875 C 5.897543144531249 3.835116826171875 5.902133144531248 3.8381768261718747 5.902643144531249 3.843786826171875 C 5.905193144531249 3.870816826171875 5.905193144531249 3.910086826171875 5.905193144531249 3.962106826171875 C 5.905193144531249 4.048806826171875 5.901113144531249 4.1105168261718745 5.901113144531249 4.119186826171875 C 5.901113144531249 4.127346826171875 5.9062131445312485 4.130916826171875 5.913353144531249 4.130916826171875 L 5.943443144531249 4.130916826171875 C 5.950583144531249 4.130916826171875 5.955683144531249 4.127346826171875 5.955683144531249 4.119186826171875 C 5.955683144531249 4.1105168261718745 5.951603144531249 4.048296826171875 5.951603144531249 3.962106826171875 M 6.184913203124999 4.027386826171875 C 6.184913203124999 4.023306826171875 6.186443203124999 4.021266826171875 6.190523203124999 4.021266826171875 C 6.209393203124999 4.020246826171875 6.236423203124999 4.019736826171875 6.279263203124999 4.019736826171875 C 6.322103203124999 4.019736826171875 6.349133203124999 4.020246826171875 6.368003203124999 4.021266826171875 C 6.372083203124999 4.021266826171875 6.373613203124999 4.023306826171875 6.373613203124999 4.027386826171875 C 6.373613203124999 4.048806826171875 6.371573203124999 4.1105168261718745 6.371573203124999 4.119186826171875 C 6.371573203124999 4.127346826171875 6.376673203124999 4.130916826171875 6.3838132031249994 4.130916826171875 L 6.413903203124999 4.130916826171875 C 6.421043203124999 4.130916826171875 6.426143203124999 4.127346826171875 6.426143203124999 4.119186826171875 C 6.426143203124999 4.1105168261718745 6.422063203124999 4.048806826171875 6.422063203124999 3.962106826171875 C 6.422063203124999 3.875916826171875 6.426143203124999 3.8177768261718747 6.426143203124999 3.809106826171875 C 6.426143203124999 3.800946826171875 6.421043203124999 3.7973768261718748 6.413903203124999 3.7973768261718748 L 6.3838132031249994 3.7973768261718748 C 6.376673203124999 3.7973768261718748 6.371573203124999 3.800946826171875 6.371573203124999 3.809106826171875 C 6.371573203124999 3.8177768261718747 6.3761632031249995 3.875916826171875 6.3761632031249995 3.971796826171875 C 6.3761632031249995 3.975876826171875 6.374633203124999 3.977916826171875 6.370553203124999 3.977916826171875 C 6.351683203124999 3.978936826171875 6.322103203124999 3.9794468261718747 6.279263203124999 3.9794468261718747 C 6.236423203124999 3.9794468261718747 6.206843203124999 3.978936826171875 6.187973203124999 3.977916826171875 C 6.183893203124999 3.977916826171875 6.182363203124999 3.975876826171875 6.182363203124999 3.971796826171875 C 6.182363203124999 3.876426826171875 6.185933203124999 3.817266826171875 6.185933203124999 3.809106826171875 C 6.185933203124999 3.800946826171875 6.180833203124999 3.7973768261718748 6.173693203124999 3.7973768261718748 L 6.143603203124999 3.7973768261718748 C 6.1364632031249995 3.7973768261718748 6.131363203124999 3.800946826171875 6.131363203124999 3.809106826171875 C 6.131363203124999 3.8177768261718747 6.135443203124999 3.875916826171875 6.135443203124999 3.962106826171875 C 6.135443203124999 4.048806826171875 6.131363203124999 4.1105168261718745 6.131363203124999 4.119186826171875 C 6.131363203124999 4.127346826171875 6.1364632031249995 4.130916826171875 6.143603203124999 4.130916826171875 L 6.173693203124999 4.130916826171875 C 6.180833203124999 4.130916826171875 6.185933203124999 4.127346826171875 6.185933203124999 4.119186826171875 C 6.185933203124999 4.1105168261718745 6.184913203124999 4.049316826171875 6.184913203124999 4.027386826171875 M 6.563091401367187 3.960576826171875 C 6.5590114013671865 3.960576826171875 6.556461401367186 3.958536826171875 6.556461401367186 3.953946826171875 C 6.556461401367186 3.9162068261718748 6.557991401367186 3.868776826171875 6.557991401367186 3.846846826171875 C 6.557991401367186 3.840726826171875 6.561051401367187 3.837666826171875 6.567171401367186 3.837666826171875 L 6.6640714013671865 3.837666826171875 C 6.698751401367186 3.837666826171875 6.7186414013671865 3.8509268261718748 6.727821401367186 3.8509268261718748 C 6.732921401367186 3.8509268261718748 6.739041401367186 3.837156826171875 6.742611401367186 3.8264468261718747 C 6.746181401367187 3.815736826171875 6.749241401367186 3.807576826171875 6.749241401367186 3.801966826171875 C 6.749241401367186 3.799416826171875 6.746691401367186 3.7973768261718748 6.741591401367186 3.7973768261718748 L 6.517701401367186 3.7973768261718748 C 6.510561401367187 3.7973768261718748 6.505461401367186 3.800946826171875 6.505461401367186 3.809106826171875 C 6.505461401367186 3.834096826171875 6.509541401367186 3.877446826171875 6.509541401367186 3.9697568261718748 C 6.509541401367186 4.056456826171875 6.505461401367186 4.100316826171875 6.505461401367186 4.119186826171875 C 6.505461401367186 4.127346826171875 6.510561401367187 4.130916826171875 6.517701401367186 4.130916826171875 L 6.735981401367186 4.130916826171875 C 6.7421014013671865 4.130916826171875 6.746181401367187 4.129896826171875 6.747711401367186 4.122756826171875 C 6.750771401367186 4.108476826171875 6.758421401367186 4.083996826171875 6.758421401367186 4.076856826171875 C 6.758421401367186 4.071756826171875 6.755871401367187 4.070226826171875 6.752301401367186 4.070226826171875 C 6.743121401367186 4.070226826171875 6.721701401367186 4.090626826171875 6.658971401367186 4.090626826171875 L 6.565641401367186 4.090626826171875 C 6.561051401367187 4.090626826171875 6.557991401367186 4.088076826171875 6.557991401367186 4.082466826171875 C 6.557991401367186 4.072776826171875 6.556461401367186 4.040646826171875 6.556461401367186 4.007496826171875 C 6.556461401367186 4.002906826171875 6.5590114013671865 4.000866826171875 6.563091401367187 4.000866826171875 L 6.633471401367186 4.000866826171875 C 6.657951401367186 4.000866826171875 6.673761401367186 4.009026826171875 6.682941401367186 4.009026826171875 C 6.688041401367186 4.009026826171875 6.693141401367186 4.000356826171875 6.696711401367186 3.989646826171875 C 6.700281401367186 3.978936826171875 6.703341401367187 3.9707768261718748 6.703341401367187 3.965166826171875 C 6.703341401367187 3.960576826171875 6.700281401367186 3.960576826171875 6.695181401367186 3.960576826171875 M 7.078957895507812 3.962106826171875 L 7.078957895507812 4.0442168261718745 C 7.078957895507812 4.046766826171875 7.077937895507811 4.048296826171875 7.076407895507812 4.048296826171875 C 7.074877895507812 4.048296826171875 7.073857895507811 4.047276826171875 7.071307895507812 4.0442168261718745 C 7.015717895507811 3.971796826171875 6.922897895507812 3.854496826171875 6.889747895507812 3.809616826171875 C 6.883117895507811 3.800436826171875 6.874957895507811 3.7973768261718748 6.866287895507812 3.7973768261718748 L 6.836197895507811 3.7973768261718748 C 6.829057895507812 3.7973768261718748 6.823957895507812 3.800946826171875 6.823957895507812 3.809106826171875 C 6.823957895507812 3.8177768261718747 6.828037895507812 3.875406826171875 6.828037895507812 3.962106826171875 C 6.828037895507812 4.048806826171875 6.823957895507812 4.1105168261718745 6.823957895507812 4.119186826171875 C 6.823957895507812 4.127346826171875 6.829057895507812 4.130916826171875 6.836197895507811 4.130916826171875 L 6.866287895507812 4.130916826171875 C 6.873427895507811 4.130916826171875 6.878527895507812 4.127346826171875 6.878527895507812 4.119186826171875 C 6.878527895507812 4.1105168261718745 6.873427895507811 4.048296826171875 6.873427895507811 3.962106826171875 C 6.873427895507811 3.929976826171875 6.874957895507811 3.879996826171875 6.874957895507811 3.879996826171875 C 6.874957895507811 3.877446826171875 6.874957895507811 3.874896826171875 6.878017895507812 3.874896826171875 C 6.881077895507811 3.874896826171875 6.883117895507811 3.877956826171875 6.885667895507812 3.881526826171875 C 6.919327895507812 3.924366826171875 7.055497895507812 4.097256826171875 7.0820178955078115 4.128876826171875 C 7.086607895507812 4.133976826171875 7.090687895507812 4.136526826171875 7.096297895507812 4.136526826171875 C 7.123837895507812 4.136526826171875 7.123327895507812 4.126326826171875 7.123327895507812 4.115616826171875 C 7.123327895507812 4.106946826171875 7.124347895507811 4.048296826171875 7.124347895507811 3.962106826171875 C 7.124347895507811 3.855006826171875 7.128427895507811 3.8177768261718747 7.128427895507811 3.809106826171875 C 7.128427895507811 3.800946826171875 7.123327895507812 3.7973768261718748 7.116187895507812 3.7973768261718748 L 7.0860978955078116 3.7973768261718748 C 7.078957895507812 3.7973768261718748 7.073857895507811 3.800946826171875 7.073857895507811 3.809106826171875 C 7.073857895507811 3.8177768261718747 7.078957895507812 3.854496826171875 7.078957895507812 3.962106826171875 M 7.356137416992187 3.962106826171875 C 7.356137416992187 3.910086826171875 7.356137416992187 3.870816826171875 7.358687416992187 3.843786826171875 C 7.3591974169921865 3.8381768261718747 7.363787416992187 3.835116826171875 7.369907416992187 3.835116826171875 L 7.410707416992187 3.835116826171875 C 7.445387416992187 3.835116826171875 7.461197416992187 3.8509268261718748 7.469357416992187 3.8509268261718748 C 7.472927416992187 3.8509268261718748 7.474967416992187 3.8478668261718747 7.474967416992187 3.843786826171875 C 7.474967416992187 3.835116826171875 7.469357416992187 3.823896826171875 7.465277416992187 3.804516826171875 C 7.4642574169921865 3.799926826171875 7.462727416992187 3.7973768261718748 7.457627416992187 3.7973768261718748 L 7.207727416992187 3.7973768261718748 C 7.202627416992187 3.7973768261718748 7.201097416992187 3.799926826171875 7.200077416992187 3.804516826171875 C 7.195997416992187 3.823896826171875 7.190387416992187 3.835116826171875 7.190387416992187 3.843786826171875 C 7.190387416992187 3.8478668261718747 7.192427416992187 3.8509268261718748 7.195997416992187 3.8509268261718748 C 7.204157416992187 3.8509268261718748 7.219967416992187 3.835116826171875 7.254647416992187 3.835116826171875 L 7.294427416992187 3.835116826171875 C 7.302077416992187 3.835116826171875 7.306667416992187 3.8381768261718747 7.307177416992187 3.843786826171875 C 7.309727416992187 3.870816826171875 7.309727416992187 3.910086826171875 7.309727416992187 3.962106826171875 C 7.309727416992187 4.048806826171875 7.305647416992187 4.1105168261718745 7.305647416992187 4.119186826171875 C 7.305647416992187 4.127346826171875 7.310747416992187 4.130916826171875 7.317887416992187 4.130916826171875 L 7.347977416992187 4.130916826171875 C 7.355117416992187 4.130916826171875 7.360217416992187 4.127346826171875 7.360217416992187 4.119186826171875 C 7.360217416992187 4.1105168261718745 7.356137416992187 4.048296826171875 7.356137416992187 3.962106826171875 M 7.595567475585938 3.962106826171875 C 7.595567475585938 3.875916826171875 7.599647475585937 3.8177768261718747 7.599647475585937 3.809106826171875 C 7.599647475585937 3.800946826171875 7.594547475585937 3.7973768261718748 7.5874074755859375 3.7973768261718748 L 7.557317475585937 3.7973768261718748 C 7.550177475585937 3.7973768261718748 7.545077475585937 3.800946826171875 7.545077475585937 3.809106826171875 C 7.545077475585937 3.8177768261718747 7.549157475585937 3.875406826171875 7.549157475585937 3.962106826171875 C 7.549157475585937 4.048806826171875 7.545077475585937 4.1105168261718745 7.545077475585937 4.119186826171875 C 7.545077475585937 4.127346826171875 7.550177475585937 4.130916826171875 7.557317475585937 4.130916826171875 L 7.5874074755859375 4.130916826171875 C 7.594547475585937 4.130916826171875 7.599647475585937 4.127346826171875 7.599647475585937 4.119186826171875 C 7.599647475585937 4.1105168261718745 7.595567475585938 4.048296826171875 7.595567475585938 3.962106826171875 M 7.8630716894531245 3.791766826171875 C 7.7422016894531245 3.791766826171875 7.670291689453125 3.879996826171875 7.670291689453125 3.974856826171875 C 7.670291689453125 4.077876826171875 7.753421689453125 4.136016826171875 7.849811689453125 4.136016826171875 C 7.920701689453125 4.136016826171875 7.954871689453125 4.115106826171875 7.974761689453125 4.100316826171875 C 7.984961689453125 4.092666826171875 7.987001689453125 4.089606826171875 7.987001689453125 4.085016826171875 C 7.987001689453125 4.076856826171875 7.972721689453125 4.048806826171875 7.966091689453124 4.048806826171875 C 7.9625216894531246 4.048806826171875 7.960991689453125 4.050336826171875 7.951811689453125 4.058496826171875 C 7.933961689453125 4.074306826171875 7.910501689453125 4.093686826171875 7.859501689453125 4.093686826171875 C 7.776371689453125 4.093686826171875 7.725371689453125 4.051356826171875 7.725371689453125 3.975876826171875 C 7.725371689453125 3.892236826171875 7.7773916894531245 3.834606826171875 7.865621689453125 3.834606826171875 C 7.902341689453125 3.834606826171875 7.9293716894531245 3.857046826171875 7.941101689453125 3.872856826171875 C 7.9467116894531244 3.880506826171875 7.949261689453125 3.8830568261718748 7.953851689453125 3.8830568261718748 C 7.957421689453125 3.8830568261718748 7.959971689453125 3.879486826171875 7.961501689453125 3.874386826171875 C 7.964561689453125 3.862146826171875 7.965071689453125 3.840726826171875 7.965071689453125 3.828996826171875 C 7.965071689453125 3.822366826171875 7.957931689453125 3.816246826171875 7.946201689453125 3.810126826171875 C 7.927841689453125 3.800436826171875 7.897241689453125 3.791766826171875 7.8630716894531245 3.791766826171875" fill="url(#gradient-ce1e4bb3-e60e-49e2-8b45-b4747d313926)" fill-rule="nonzero"></path></g><g clip-path="url(&quot;#SvgjsClipPath1002&quot;)"><g clip-path="url(&quot;#a&quot;)"><path d=" M 8.41833897270777 2.8257631597630875 C 8.50513381502053 3.027655510360159 8.790841779933356 3.119117809868227 9.000976661322142 3.3759272632100994 C 9.224319453497653 3.649221778135402 9.259474343862317 4.03413803534851 9.23832182508358 4.370194953410728 C 9.199790476322308 4.1642309912177495 9.09760295602502 3.8910357838923475 8.883992308639726 3.7348249292493594 C 8.996110588927033 3.9152668382679914 8.992634822930526 4.091637135690716 9.09214103803051 4.299388634681899 C 8.956586164166762 4.187965507593892 8.761446730362902 4.062341393720162 8.672169198052638 3.966608867416386 C 8.543764471381701 3.829067841554633 8.469383079056465 3.677921674506555 8.433632343092398 3.477618245507886 C 8.395100994331127 3.261723523324889 8.40721652151895 3.042154419945585 8.41833897270777 2.8257631597630875" fill="url(#gradient-89f3fdfb-8a4f-49cb-83a9-596d6f6db318_0)" transform="matrix(1,0,0,1,0,0)" fill-rule="nonzero"></path></g><g clip-path="url(&quot;#a&quot;)"><path d=" M 10.207166769709762 2.813846247775065 C 10.120371927397002 3.0156392907722362 9.834663962484177 3.1071015902803047 9.62462838869529 3.3640103512220776 C 9.40118628891988 3.6371062509475793 9.366130706155115 4.022221123360488 9.387183917333953 4.358178733822806 C 9.425715266095224 4.152314079229727 9.528002093992413 3.8790195643044245 9.741513433777804 3.722908017261337 C 9.6293951534905 3.9032506186800693 9.632771611887105 4.079720223702694 9.533364704387022 4.2873724150939765 C 9.578748277541406 4.250330680331208 9.6305868446893 4.211402101170336 9.682921949836697 4.172771444809165 C 9.865846548852833 4.037514493745116 10.012424566305503 3.934631820248527 10.111533551005886 3.7250927844591417 C 10.188695556128327 3.5620297054230416 10.212529380104371 3.380892643205108 10.217594067699281 3.189824820997157 C 10.220573295696287 3.0777065407098507 10.214316916902575 2.9531748104350215 10.207166769709762 2.813846247775065" fill="url(#gradient-89f3fdfb-8a4f-49cb-83a9-596d6f6db318_1)" transform="matrix(1,0,0,1,0,0)" fill-rule="nonzero"></path></g><g clip-path="url(&quot;#a&quot;)"><path d=" M 8.41833897270777 1.7443033968500974 C 8.50513381502053 1.946195747447169 8.790841779933356 2.0375587393553367 9.000976661322142 2.2944675002971096 C 9.224319453497653 2.567662707622512 9.259474343862317 2.95267827243552 9.23832182508358 3.288635882897838 C 9.199790476322308 3.0826719207048594 9.09760295602502 2.8095760209793568 8.883992308639726 2.6532658587364693 C 8.996110588927033 2.833707767755101 8.992634822930526 3.0100780651778254 9.09214103803051 3.2179288717689083 C 8.956586164166762 3.106505744680903 8.761446730362902 2.9808816308071715 8.672169198052638 2.885149104503396 C 8.543764471381701 2.7475087710417427 8.469383079056465 2.5964619115935648 8.433632343092398 2.3960591749949964 C 8.395100994331127 2.1802637604118993 8.40721652151895 1.9605953494326953 8.41833897270777 1.7443033968500974" fill="url(#gradient-89f3fdfb-8a4f-49cb-83a9-596d6f6db318_2)" transform="matrix(1,0,0,1,0,0)" fill-rule="nonzero"></path></g><g clip-path="url(&quot;#a&quot;)"><path d=" M 10.207166769709762 1.7323864848620756 C 10.120371927397002 1.9341795278592468 9.834663962484177 2.0255425197674146 9.62462838869529 2.2825505883090877 C 9.40118628891988 2.5555471804346896 9.366130706155115 2.940761360447498 9.387183917333953 3.2767189709098163 C 9.425715266095224 3.0707550087168376 9.528002093992413 2.7974604937915344 9.741513433777804 2.6413489467484474 C 9.6293951534905 2.821790855767079 9.632771611887105 2.9981611531898036 9.533364704387022 3.2059126521809858 C 9.578748277541406 3.1687716098183176 9.6305868446893 3.1299423382573464 9.682921949836697 3.0912123742962754 C 9.865846548852833 2.9559554232322265 10.012424566305503 2.853172057335537 10.111533551005886 2.643633021546152 C 10.188695556128327 2.480470634910152 10.212529380104371 2.2993335726922184 10.217594067699281 2.108265750484267 C 10.220573295696287 1.9962467777968609 10.214316916902575 1.871715047522032 10.207166769709762 1.7323864848620756" fill="url(#gradient-89f3fdfb-8a4f-49cb-83a9-596d6f6db318_3)" transform="matrix(1,0,0,1,0,0)" fill-rule="nonzero"></path></g><g clip-path="url(&quot;#a&quot;)"><path d=" M 8.41833897270777 0.6626450187373075 C 8.50513381502053 0.8644380617344787 8.790841779933356 0.955900361242547 9.000976661322142 1.2128091221843198 C 9.224319453497653 1.4859050219098218 9.259474343862317 1.8709205867228298 9.23832182508358 2.2070768123849485 C 9.199790476322308 2.0011128501919697 9.09760295602502 1.7279176428665675 8.883992308639726 1.57170678822358 C 8.996110588927033 1.7520493896423115 8.992634822930526 1.9284196870650359 9.09214103803051 2.1361711860562185 C 8.956586164166762 2.0248473665681135 8.761446730362902 1.8992232526943824 8.672169198052638 1.8034907263906064 C 8.543764471381701 1.6658503929289532 8.469383079056465 1.5148035334807752 8.433632343092398 1.3145001044821065 C 8.395100994331127 1.0986053822991095 8.40721652151895 0.8790362789198056 8.41833897270777 0.6626450187373075" fill="url(#gradient-89f3fdfb-8a4f-49cb-83a9-596d6f6db318_4)" transform="matrix(1,0,0,1,0,0)" fill-rule="nonzero"></path></g><g clip-path="url(&quot;#a&quot;)"><path d=" M 10.207166769709762 0.6507281067492857 C 10.120371927397002 0.8525211497464569 9.834663962484177 0.9438841416546251 9.62462838869529 1.2008922101962978 C 9.40118628891988 1.4738888023219 9.366130706155115 1.859003674734808 9.387183917333953 2.1950605927970264 C 9.425715266095224 1.9890966306040476 9.528002093992413 1.7158021156787449 9.741513433777804 1.5596905686356577 C 9.6293951534905 1.7400331700543896 9.632771611887105 1.916502775077014 9.533364704387022 2.1241549664682964 C 9.578748277541406 2.087013924105628 9.6305868446893 2.048283960144557 9.682921949836697 2.0095539961834854 C 9.865846548852833 1.8743963527193364 10.012424566305503 1.7714143716228472 10.111533551005886 1.5619746434333621 C 10.188695556128327 1.3988122567973618 10.212529380104371 1.2176751945794286 10.217594067699281 1.0266073723714773 C 10.220573295696287 0.9144890920841711 10.214316916902575 0.7900566694092419 10.207166769709762 0.6507281067492857" fill="url(#gradient-89f3fdfb-8a4f-49cb-83a9-596d6f6db318_5)" transform="matrix(1,0,0,1,0,0)" fill-rule="nonzero"></path></g><g clip-path="url(&quot;#a&quot;)"><path d=" M 9.315682445405821 0.5653235708351289 C 9.315682445405821 0.5653235708351289 9.33157166138985 0.9549072852435454 9.38053030814064 1.3228419428737224 C 9.562163908358075 0.9414014516571205 9.979752365938342 0.4830968781177776 9.312901832608617 -0.23926660355615118 C 8.647044375277892 0.48220310971867586 9.062646680860155 0.9402097604583184 9.24467751147719 1.3213523288752198 C 9.293735465827881 0.9515308268469391 9.315682445405821 0.5653235708351289 9.315682445405821 0.5653235708351289" fill="url(#gradient-89f3fdfb-8a4f-49cb-83a9-596d6f6db318_6)" transform="matrix(1,0,0,1,0,0)" fill-rule="nonzero"></path></g></g></g><defs><linearGradient id="gradient-98bf88ab-4556-4943-be00-b4e5b4b78ff3" x1="0" y1="0" x2="1" y2="0"><stop stop-color="#f7ca4d" offset="0"></stop><stop stop-color="#3e7742" offset="1"></stop></linearGradient><linearGradient id="gradient-ce1e4bb3-e60e-49e2-8b45-b4747d313926" x1="0" y1="0" x2="1" y2="1"><stop stop-color="#f7ca4d" offset="0"></stop><stop stop-color="#3e7742" offset="1"></stop></linearGradient><clipPath id="SvgjsClipPath1002"><path d=" M 8.40741513671875 -0.23927812723885333 h 1.8109282653004448 v 4.609473080649582 h -1.8109282653004448 Z"></path></clipPath><clipPath id="a"><path d=" M 8.40741513671875 4.370194953410728 L 10.218388528498481 4.370194953410728 L 10.218388528498481 -0.23926660355615118 L 8.40741513671875 -0.23926660355615118 Z"></path></clipPath><linearGradient id="gradient-89f3fdfb-8a4f-49cb-83a9-596d6f6db318_0" x1="0" x2="0" y1="0" y2="1"><stop stop-color="#b9ae49" offset="0"></stop><stop stop-color="#f7ca4d" offset="1"></stop></linearGradient><linearGradient id="gradient-89f3fdfb-8a4f-49cb-83a9-596d6f6db318_1" x1="0" x2="0" y1="0" y2="1"><stop stop-color="#b8ad49" offset="0"></stop><stop stop-color="#f6c94c" offset="1"></stop></linearGradient><linearGradient id="gradient-89f3fdfb-8a4f-49cb-83a9-596d6f6db318_2" x1="0" x2="0" y1="0" y2="1"><stop stop-color="#8d9a46" offset="0"></stop><stop stop-color="#cbb64a" offset="1"></stop></linearGradient><linearGradient id="gradient-89f3fdfb-8a4f-49cb-83a9-596d6f6db318_3" x1="0" x2="0" y1="0" y2="1"><stop stop-color="#8d9a46" offset="0"></stop><stop stop-color="#cbb64a" offset="1"></stop></linearGradient><linearGradient id="gradient-89f3fdfb-8a4f-49cb-83a9-596d6f6db318_4" x1="0" x2="0" y1="0" y2="1"><stop stop-color="#628744" offset="0"></stop><stop stop-color="#a0a347" offset="1"></stop></linearGradient><linearGradient id="gradient-89f3fdfb-8a4f-49cb-83a9-596d6f6db318_5" x1="0" x2="0" y1="0" y2="1"><stop stop-color="#618744" offset="0"></stop><stop stop-color="#9fa247" offset="1"></stop></linearGradient><linearGradient id="gradient-89f3fdfb-8a4f-49cb-83a9-596d6f6db318_6" x1="0" x2="0" y1="0" y2="1"><stop stop-color="#3e7742" offset="0"></stop><stop stop-color="#7c9345" offset="1"></stop></linearGradient></defs></svg>